{"glyphs":{"0":{"ha":938,"x_min":43,"x_max":894,"o":"m 894 489 q 894 474 894 482 q 893 458 894 467 q 769 143 883 286 q 468 0 654 0 q 168 143 282 0 q 44 458 54 286 q 43 474 43 467 q 43 489 43 482 q 43 503 43 496 q 44 519 43 511 q 168 835 54 692 q 468 978 282 978 q 772 833 657 978 q 894 513 886 688 q 894 501 894 507 q 894 489 894 494 l 894 489 m 789 489 q 788 516 789 503 q 786 543 788 529 q 687 769 769 667 q 468 872 604 872 q 433 870 450 872 q 399 864 415 868 l 399 114 q 433 108 415 110 q 468 106 450 106 q 686 208 603 106 q 785 435 769 311 q 788 462 788 449 q 789 489 789 475 l 789 489 z "},"1":{"ha":628,"x_min":29,"x_max":600,"o":"m 600 0 l 56 0 l 56 106 l 142 106 l 142 760 l 65 732 l 29 831 l 492 1000 l 492 106 l 600 106 l 600 0 l 600 0 z "},"2":{"ha":932,"x_min":33,"x_max":882,"o":"m 881 207 q 806 51 882 99 q 640 -1 731 4 q 619 -2 629 -1 q 600 -3 610 -3 q 317 -3 458 -3 q 33 -3 175 -3 q 153 174 93 85 q 272 351 213 263 q 392 528 332 439 q 511 706 451 617 q 528 731 526 729 q 528 731 529 733 q 526 728 526 729 q 528 731 525 728 q 568 794 553 768 q 583 842 583 821 q 581 858 583 850 q 571 875 578 867 q 569 875 569 875 q 567 876 568 875 q 564 876 565 876 q 561 876 563 876 q 515 885 539 882 q 467 888 490 888 q 378 878 422 888 q 297 851 335 869 q 294 849 296 850 q 290 847 292 849 q 217 792 250 828 q 183 711 183 756 q 186 688 183 700 q 194 664 189 676 q 224 629 206 642 q 265 618 243 617 q 282 619 274 618 q 297 625 290 621 q 299 626 299 625 q 301 626 300 626 q 320 641 311 632 q 329 661 329 650 q 329 667 329 664 q 326 674 329 671 l 422 718 q 433 690 429 704 q 436 660 436 675 q 410 583 436 617 q 342 529 383 549 q 322 522 332 525 q 304 517 313 519 q 285 514 294 515 q 265 513 275 513 q 168 541 214 513 q 99 618 122 569 q 82 665 88 642 q 76 711 76 689 q 128 851 76 788 q 253 947 181 914 q 355 981 299 969 q 469 992 411 993 q 478 992 474 992 q 489 992 483 992 q 685 943 592 988 q 821 804 779 899 q 839 753 833 776 q 844 707 844 729 q 842 682 844 694 q 836 657 840 669 q 804 588 826 624 q 751 508 782 553 q 651 357 700 433 q 553 204 601 281 q 520 152 536 178 q 488 101 504 126 q 544 101 515 101 q 600 101 572 101 q 628 102 614 101 q 658 106 643 103 q 740 133 703 111 q 775 206 776 154 q 762 254 775 235 q 717 274 749 274 l 717 379 q 837 330 793 379 q 881 207 881 281 l 881 207 z "},"3":{"ha":856,"x_min":39,"x_max":817,"o":"m 817 294 q 786 158 817 214 q 707 67 756 103 q 629 24 671 40 q 544 0 588 8 q 482 -8 513 -6 q 422 -11 451 -11 q 276 10 344 -11 q 156 67 208 31 q 70 161 101 107 q 39 279 39 215 q 91 425 39 365 q 232 485 143 485 q 342 435 296 485 q 388 322 388 386 q 365 239 388 275 q 303 176 343 203 l 247 267 q 274 290 265 278 q 282 322 282 301 q 282 327 282 325 q 281 332 282 329 q 264 365 278 350 q 232 379 250 379 q 165 351 186 379 q 144 279 144 322 q 164 209 144 242 q 218 153 183 176 q 308 109 256 125 q 422 93 361 93 q 433 93 428 93 q 443 94 438 93 l 443 476 q 410 476 426 476 q 379 476 394 476 l 379 582 q 410 582 394 582 q 443 582 426 582 l 443 888 q 406 885 426 888 q 365 881 386 883 q 274 846 315 871 q 232 769 232 821 q 244 735 232 749 q 278 721 256 721 q 306 732 293 721 q 319 757 318 743 l 424 747 q 373 651 418 686 q 275 617 328 617 q 219 628 246 617 q 168 663 192 640 q 138 708 150 682 q 126 769 126 735 q 202 924 126 874 q 368 986 278 974 q 413 992 390 990 q 456 993 435 993 q 674 931 575 993 q 774 733 774 869 q 742 624 774 676 q 661 536 710 572 q 694 515 678 526 q 724 492 710 504 q 790 406 764 456 q 817 294 817 356 l 817 294 z "},"4":{"ha":1014,"x_min":46,"x_max":968,"o":"m 968 263 l 794 263 l 794 106 l 903 106 l 903 0 l 360 0 l 360 106 l 444 106 l 444 263 l 46 263 l 650 976 l 794 976 l 794 368 l 968 368 l 968 263 l 968 263 m 444 368 l 444 572 l 272 368 l 444 368 l 444 368 z "},"5":{"ha":865,"x_min":39,"x_max":826,"o":"m 826 376 q 694 104 826 206 q 404 0 563 3 q 399 0 401 0 q 396 0 397 0 q 344 3 371 0 q 290 15 318 7 q 117 108 196 40 q 39 275 39 175 q 53 360 39 321 q 92 426 68 399 q 151 472 117 454 q 222 493 186 490 q 228 493 225 493 q 233 493 231 493 q 286 483 261 493 q 333 451 311 474 q 363 410 353 433 q 374 364 372 388 q 375 356 375 360 q 375 349 375 353 q 336 250 375 294 q 232 206 297 206 l 232 311 q 261 324 251 311 q 271 350 271 336 q 261 376 269 365 q 233 388 253 388 q 173 359 194 388 q 146 296 151 331 q 145 286 146 292 q 144 275 144 281 q 165 216 144 244 q 215 164 185 188 q 303 121 256 135 q 403 107 351 107 q 444 110 424 107 q 485 117 465 113 l 485 633 q 481 633 483 633 q 476 633 478 633 q 472 633 474 633 q 467 633 469 633 q 397 633 432 633 q 328 633 363 633 q 258 633 293 633 q 189 633 224 633 l 265 978 l 710 978 l 710 872 l 350 872 l 321 739 q 394 739 357 739 q 467 739 431 739 q 722 632 617 739 q 826 376 826 525 l 826 376 z "},"6":{"ha":915,"x_min":42,"x_max":875,"o":"m 824 785 q 772 665 824 713 q 657 618 721 618 q 648 618 653 618 q 639 619 643 618 q 594 632 617 622 q 553 660 572 642 q 518 703 533 678 q 496 765 503 729 l 600 786 q 622 741 606 760 q 660 722 638 722 q 671 724 665 722 q 682 728 676 725 q 692 735 686 731 q 703 744 697 739 q 714 761 710 751 q 718 785 718 771 q 681 851 718 831 q 599 881 643 872 q 548 886 572 885 q 507 888 524 888 q 448 882 476 888 q 393 867 419 876 l 393 567 q 419 577 406 572 q 449 585 433 582 q 485 592 467 589 q 521 597 503 596 q 539 598 529 597 q 557 599 549 599 q 658 584 608 597 q 751 543 708 571 q 844 443 814 503 q 875 318 875 383 q 844 191 874 253 q 756 85 814 129 q 628 22 701 44 q 465 0 554 0 q 151 155 261 0 q 42 496 42 310 q 175 839 42 686 q 507 993 308 992 q 551 992 528 993 q 597 986 574 990 q 753 930 682 975 q 824 785 824 885 l 824 785 m 768 321 q 706 447 768 406 q 568 492 643 488 q 559 492 564 492 q 550 492 554 492 q 511 490 531 492 q 474 483 492 488 q 429 467 449 478 q 393 444 410 457 l 393 114 q 428 108 410 110 q 465 106 447 106 q 499 107 482 106 q 533 110 517 108 q 695 171 622 122 q 768 321 768 219 l 768 321 z "},"7":{"ha":901,"x_min":40,"x_max":860,"o":"m 860 978 l 556 106 l 643 106 l 643 0 l 99 0 l 99 106 l 200 106 l 469 872 l 218 872 l 135 713 l 40 760 l 154 978 l 860 978 l 860 978 z "},"8":{"ha":918,"x_min":42,"x_max":876,"o":"m 876 265 q 791 101 876 158 q 603 21 706 43 q 508 5 554 10 q 424 0 461 0 q 274 19 339 0 q 163 68 210 38 q 87 138 115 99 q 47 218 58 178 q 43 242 44 231 q 42 267 42 254 q 87 413 42 351 q 200 508 132 474 q 191 516 196 513 q 181 524 186 519 q 170 530 175 526 q 161 538 165 533 q 89 625 114 575 q 64 726 64 675 q 94 835 65 783 q 182 924 122 888 q 306 974 235 957 q 453 990 378 990 q 587 976 522 990 q 700 931 651 961 q 783 851 757 896 q 808 758 808 807 q 780 657 808 707 q 699 568 751 607 q 690 560 694 564 q 679 554 685 557 q 698 540 689 547 q 715 525 707 532 q 734 509 725 517 q 751 494 743 501 q 776 474 764 483 q 797 456 788 464 q 856 380 835 421 q 876 265 876 339 l 876 265 m 631 136 q 606 185 622 164 q 564 224 589 206 q 497 276 531 250 q 431 329 464 303 q 363 381 396 354 q 296 433 329 407 q 192 374 236 415 q 147 267 147 333 q 149 249 147 258 q 154 232 150 240 q 178 192 161 213 q 219 156 194 172 q 317 117 261 129 q 433 104 374 104 q 452 104 443 104 q 471 106 461 104 q 553 116 513 108 q 631 136 594 124 l 631 136 m 646 840 q 557 874 608 864 q 451 885 506 885 q 436 885 444 885 q 421 883 428 885 q 390 881 406 883 q 360 876 375 879 q 385 814 367 842 q 433 761 404 786 q 514 694 474 728 q 593 628 554 661 q 616 638 604 632 q 638 653 628 644 q 685 702 668 675 q 703 757 703 729 q 690 801 703 779 q 646 840 676 822 l 646 840 z "},"9":{"ha":915,"x_min":42,"x_max":874,"o":"m 874 497 q 741 153 874 306 q 410 0 608 0 q 366 1 389 0 q 321 6 343 3 q 163 63 235 18 q 92 208 92 108 q 143 328 92 282 q 258 374 194 375 q 313 364 286 374 q 364 333 340 354 q 398 290 383 315 q 419 228 413 264 l 317 207 q 294 253 311 235 q 254 269 276 271 q 234 265 244 269 q 213 249 224 260 q 202 232 207 242 q 197 208 197 222 q 235 141 197 163 q 318 113 274 119 q 368 107 344 108 q 410 106 392 106 q 469 111 440 106 q 524 126 497 117 l 524 426 q 496 416 510 421 q 467 407 482 411 q 441 401 454 404 q 414 397 428 399 q 387 395 400 396 q 361 394 374 394 q 259 408 310 394 q 164 450 208 421 q 72 551 103 490 q 42 676 42 611 q 42 682 42 679 q 42 688 42 685 q 74 808 44 750 q 160 908 104 867 q 288 971 214 949 q 450 993 361 993 q 764 838 654 993 q 874 497 874 683 l 874 497 m 524 549 l 524 879 q 488 885 506 883 q 450 888 469 888 q 416 886 433 888 q 382 883 399 885 q 220 822 293 871 q 147 672 147 774 q 210 547 147 588 q 347 501 272 506 q 356 501 351 501 q 365 501 361 501 q 404 503 385 501 q 442 510 424 506 q 486 526 467 517 q 524 549 506 535 l 524 549 z "}," ":{"ha":694,"x_min":0,"x_max":0,"o":""}," ":{"ha":694,"x_min":0,"x_max":0,"o":""},"!":{"ha":460,"x_min":21,"x_max":439,"o":"m 424 143 q 378 45 424 82 q 278 -1 332 8 q 253 -4 265 -3 q 231 -6 242 -6 q 208 -4 219 -6 q 185 -1 197 -3 q 83 44 129 8 q 36 143 36 81 q 83 241 36 204 q 185 289 129 278 q 208 292 197 290 q 231 293 219 293 q 253 292 242 293 q 278 288 265 290 q 378 240 332 276 q 424 143 424 204 l 424 143 m 439 804 q 422 708 439 746 q 381 638 406 671 q 374 628 378 633 q 368 619 371 624 q 362 611 365 615 q 356 601 358 607 q 308 516 329 567 q 288 376 288 465 q 288 349 288 363 q 288 324 288 336 l 172 324 q 172 349 172 336 q 172 376 172 363 q 151 519 172 468 q 103 606 129 569 q 99 613 101 610 q 93 619 96 617 q 87 628 90 624 q 79 638 83 633 q 38 708 56 671 q 21 804 21 746 q 74 917 21 872 q 190 975 126 963 q 210 978 200 978 q 231 979 221 979 q 251 978 240 979 q 272 975 263 976 q 387 917 335 963 q 439 804 439 871 l 439 804 z "},"\"":{"ha":275,"x_min":26,"x_max":456,"o":"m 456 1079 l 386 806 l 290 806 l 242 1000 l 192 806 l 96 806 l 26 1079 l 456 1079 l 456 1079 z "},"#":{"ha":694,"x_min":0,"x_max":0,"o":""},"$":{"ha":663,"x_min":31,"x_max":632,"o":"m 632 349 q 607 261 632 303 q 539 188 582 219 q 449 141 500 158 q 344 124 399 124 q 285 127 314 124 q 233 136 257 131 l 144 -93 q 133 -108 140 -103 q 118 -117 125 -114 q 114 -117 115 -117 q 111 -117 113 -117 q 86 -108 97 -117 q 75 -83 75 -99 q 76 -75 75 -79 q 79 -67 78 -71 l 167 160 q 158 165 163 163 q 151 168 154 167 q 143 173 147 171 q 135 178 139 175 q 78 228 101 200 q 44 283 56 256 q 35 313 39 299 q 31 340 32 326 l 124 347 q 128 327 125 338 q 138 306 132 317 q 158 280 146 293 q 186 256 169 267 q 190 253 189 254 q 194 251 192 253 q 198 249 196 250 q 201 247 200 249 l 268 419 q 235 452 251 436 q 201 485 218 468 q 169 517 185 501 q 136 550 153 533 q 99 604 111 574 q 86 669 86 635 q 148 798 86 753 q 285 856 210 843 q 318 860 301 858 q 350 861 335 861 q 378 860 364 861 q 408 858 393 860 q 423 856 415 857 q 438 853 431 854 l 515 1053 q 531 1072 521 1067 q 550 1078 540 1078 q 573 1068 563 1078 q 583 1043 583 1058 q 583 1036 583 1040 q 581 1028 583 1032 l 504 829 q 553 792 532 815 q 585 732 575 768 l 493 708 q 485 728 492 719 q 469 742 478 736 l 425 626 q 465 587 444 607 q 504 547 485 567 q 544 506 524 526 q 585 467 564 486 q 620 412 608 443 q 632 349 632 381 l 632 349 m 422 231 q 425 235 425 233 q 425 240 425 238 q 417 263 425 250 q 397 292 410 276 q 393 296 394 293 q 389 300 392 299 q 356 332 372 315 q 322 365 339 349 l 268 224 q 285 221 276 222 q 303 218 293 219 q 319 217 311 218 q 336 217 328 217 q 382 220 360 217 q 422 231 404 224 l 422 231 m 403 764 q 374 767 388 767 q 350 768 360 768 q 347 768 349 768 q 343 768 344 768 q 317 765 329 768 q 306 753 306 761 q 308 744 306 749 q 317 735 311 740 q 344 708 331 721 q 371 681 357 694 l 403 764 l 403 764 z "},"%":{"ha":694,"x_min":0,"x_max":0,"o":""},"&":{"ha":1201,"x_min":18,"x_max":1194,"o":"m 1193 378 q 1193 374 1193 376 q 1194 369 1193 371 q 1194 365 1194 367 q 1194 360 1194 363 q 1186 308 1194 332 q 1168 267 1178 283 q 1163 260 1165 263 q 1160 254 1161 257 q 1102 209 1135 224 q 1033 194 1069 194 q 1024 194 1029 194 q 1014 196 1019 194 q 1003 197 1008 196 q 994 199 999 197 l 1018 301 q 1026 300 1022 300 q 1035 300 1031 300 q 1074 317 1058 300 q 1089 360 1090 333 q 1089 362 1089 361 q 1089 364 1089 363 q 1089 365 1089 364 q 1089 367 1089 365 q 1083 385 1088 376 q 1067 403 1078 394 q 1043 417 1056 413 q 1018 421 1031 421 q 1006 420 1013 421 q 994 418 1000 419 q 942 392 968 411 q 896 353 917 374 q 877 334 886 343 q 861 317 868 325 l 1025 104 l 1136 106 l 1136 0 l 554 -1 q 546 11 550 6 q 538 24 542 17 q 528 35 533 29 q 519 47 524 42 q 429 15 476 28 q 333 0 382 1 q 319 -1 326 -1 q 306 -1 313 -1 q 234 4 269 -1 q 167 24 199 10 q 57 114 96 54 q 18 250 18 174 q 72 409 18 344 q 203 508 125 474 q 188 530 196 519 q 174 550 181 540 q 170 556 172 553 q 165 561 168 558 q 120 642 135 600 q 106 726 106 683 q 134 836 106 783 q 222 925 163 889 q 340 973 272 956 q 481 992 408 990 q 487 992 483 992 q 493 992 490 992 q 621 976 558 990 q 731 931 683 963 q 808 852 783 897 q 832 758 832 807 q 832 751 832 756 q 832 744 832 747 q 801 649 828 696 q 729 567 775 603 q 709 553 719 560 q 688 540 699 547 l 796 401 q 872 471 832 442 q 950 514 911 500 q 967 519 958 517 q 986 524 976 522 q 1005 527 996 526 q 1022 528 1014 528 q 1080 517 1051 528 q 1135 485 1108 507 q 1176 433 1163 461 q 1193 378 1190 406 l 1193 378 m 460 136 q 410 208 435 172 q 361 278 386 243 q 312 349 336 314 q 263 421 288 385 q 165 357 207 399 q 124 250 124 315 q 179 137 124 171 q 306 103 235 103 q 356 106 331 103 q 408 118 382 110 q 434 126 421 121 q 460 136 447 131 l 460 136 m 674 843 q 633 862 657 853 q 585 876 610 871 q 549 883 567 881 q 517 885 532 885 q 497 883 506 885 q 481 879 488 882 q 474 872 476 876 q 472 864 472 868 q 472 863 472 864 q 472 861 472 863 q 472 859 472 860 q 472 858 472 858 q 474 844 472 853 q 478 828 476 836 q 483 817 481 822 q 488 807 485 813 q 499 788 493 797 q 511 768 506 778 q 516 763 514 765 q 519 758 518 761 l 622 625 q 644 637 633 631 q 665 650 656 643 q 703 690 688 668 q 724 735 718 711 q 726 746 725 740 q 726 757 726 751 q 713 803 725 781 q 674 843 701 825 l 674 843 z "},"'":{"ha":275,"x_min":26,"x_max":261,"o":"m 261 1079 l 192 806 l 96 806 l 26 1079 l 261 1079 l 261 1079 z "},"(":{"ha":694,"x_min":0,"x_max":0,"o":""},")":{"ha":694,"x_min":0,"x_max":0,"o":""},"*":{"ha":543,"x_min":25,"x_max":518,"o":"m 518 711 l 347 750 l 467 622 l 324 539 l 272 706 l 221 538 l 76 621 l 196 747 l 25 710 l 25 875 l 196 835 l 75 965 l 219 1049 l 269 879 l 321 1049 l 465 965 l 344 836 l 518 876 l 518 711 l 518 711 z "},"+":{"ha":694,"x_min":0,"x_max":0,"o":""},",":{"ha":428,"x_min":25,"x_max":408,"o":"m 403 18 q 373 -69 394 -29 q 321 -136 351 -108 q 257 -175 292 -162 q 186 -185 222 -187 l 186 -81 q 189 -79 188 -79 q 192 -81 190 -79 q 194 -81 193 -81 q 197 -81 196 -81 q 228 -74 214 -81 q 257 -56 243 -67 q 283 -25 271 -43 q 300 14 294 -7 q 273 4 288 8 q 244 -3 258 0 q 226 -5 235 -4 q 207 -6 217 -6 q 186 -4 197 -6 q 164 -1 175 -3 q 69 44 113 8 q 25 143 25 81 q 69 241 25 204 q 164 289 113 278 q 186 292 175 290 q 207 293 197 293 q 356 227 304 293 q 407 71 408 161 q 406 45 407 58 q 403 18 406 32 l 403 18 z "},"-":{"ha":694,"x_min":0,"x_max":0,"o":""},".":{"ha":460,"x_min":36,"x_max":424,"o":"m 424 143 q 378 45 424 82 q 278 -1 332 8 q 253 -4 265 -3 q 231 -6 242 -6 q 208 -4 219 -6 q 185 -1 197 -3 q 83 44 129 8 q 36 143 36 81 q 83 241 36 204 q 185 289 129 278 q 208 292 197 290 q 231 293 219 293 q 253 292 242 293 q 278 288 265 290 q 378 240 332 276 q 424 143 424 204 l 424 143 z "},"/":{"ha":694,"x_min":0,"x_max":0,"o":""},":":{"ha":428,"x_min":19,"x_max":407,"o":"m 407 142 q 360 44 407 81 q 258 -3 314 7 q 235 -6 246 -4 q 213 -7 224 -7 q 190 -6 201 -7 q 165 -1 178 -4 q 65 44 111 8 q 19 142 19 81 q 65 239 19 203 q 165 286 111 275 q 190 290 178 289 q 213 292 201 292 q 235 290 224 292 q 258 288 246 289 q 360 240 314 276 q 407 142 407 204 l 407 142 m 407 503 q 360 405 407 442 q 258 357 314 368 q 235 354 246 356 q 213 353 224 353 q 190 354 201 353 q 165 358 178 356 q 65 406 111 369 q 19 503 19 442 q 65 600 19 564 q 165 647 111 636 q 190 651 178 650 q 213 653 201 653 q 235 651 224 653 q 258 649 246 650 q 360 601 314 638 q 407 503 407 565 l 407 503 z "},";":{"ha":428,"x_min":19,"x_max":408,"o":"m 403 18 q 373 -69 394 -29 q 321 -136 351 -108 q 257 -175 292 -162 q 186 -185 222 -187 l 186 -81 q 189 -79 188 -79 q 192 -81 190 -79 q 194 -81 193 -81 q 197 -81 196 -81 q 228 -74 214 -81 q 257 -56 243 -67 q 283 -25 271 -43 q 300 14 294 -7 q 273 4 288 8 q 244 -3 258 0 q 226 -5 235 -4 q 207 -6 217 -6 q 186 -4 197 -6 q 164 -1 175 -3 q 69 44 113 8 q 25 143 25 81 q 69 241 25 204 q 164 289 113 278 q 186 292 175 290 q 207 293 197 293 q 356 227 304 293 q 407 71 408 161 q 406 45 407 58 q 403 18 406 32 l 403 18 m 407 503 q 360 405 407 442 q 258 357 314 368 q 235 354 246 356 q 213 353 224 353 q 190 354 201 353 q 165 358 178 356 q 65 406 111 369 q 19 503 19 442 q 65 600 19 564 q 165 647 111 636 q 190 651 178 650 q 213 653 201 653 q 235 651 224 653 q 258 649 246 650 q 360 601 314 638 q 407 503 407 565 l 407 503 z "},"<":{"ha":694,"x_min":0,"x_max":0,"o":""},"=":{"ha":694,"x_min":0,"x_max":0,"o":""},">":{"ha":694,"x_min":0,"x_max":0,"o":""},"?":{"ha":764,"x_min":33,"x_max":729,"o":"m 540 143 q 524 80 540 108 q 476 31 507 51 q 418 3 451 13 q 347 -6 385 -6 q 276 3 310 -6 q 218 31 243 13 q 170 80 188 51 q 153 143 153 108 q 170 206 153 176 q 218 254 188 235 q 276 283 243 272 q 347 293 310 293 q 418 283 385 293 q 476 254 451 272 q 524 206 507 235 q 540 143 540 176 l 540 143 m 729 672 q 623 450 729 529 q 386 360 517 371 l 386 311 l 281 311 l 281 463 q 319 463 300 463 q 357 464 339 463 l 357 882 q 264 876 310 885 q 185 843 218 867 q 152 811 164 829 q 140 772 140 793 q 157 738 140 750 q 194 722 174 726 q 210 719 203 719 q 225 718 218 718 l 225 614 q 222 614 224 614 q 217 614 219 614 q 92 656 149 617 q 35 771 36 696 q 99 910 33 860 q 244 978 165 961 q 288 985 267 983 q 331 988 310 988 q 344 988 338 988 q 357 988 350 988 q 613 906 497 981 q 729 672 729 832 l 729 672 z "},"@":{"ha":694,"x_min":0,"x_max":0,"o":""},"A":{"ha":1190,"x_min":15,"x_max":1167,"o":"m 1167 0 l 642 0 l 642 106 l 738 106 l 660 268 q 610 262 633 264 q 567 260 588 260 q 520 263 542 260 q 479 269 499 265 q 430 284 453 275 q 386 303 407 293 l 290 106 l 361 106 l 361 0 l 50 0 l 50 106 l 172 106 l 293 353 q 267 364 281 358 q 238 374 253 369 q 215 378 226 376 q 192 381 203 381 q 153 372 171 381 q 125 344 136 364 q 123 338 124 342 q 122 329 122 335 q 122 324 122 326 q 124 317 122 321 q 127 306 125 311 q 131 296 129 300 l 42 239 q 24 275 31 256 q 15 315 18 294 q 15 323 15 319 q 15 329 15 326 q 19 365 15 347 q 32 396 24 382 q 96 462 57 440 q 185 485 135 483 q 259 476 221 486 q 339 447 297 467 l 624 1049 l 1099 106 l 1167 106 l 1167 0 l 1167 0 m 611 368 l 514 567 l 432 397 q 466 383 449 389 q 501 372 483 376 q 533 367 517 369 q 567 365 549 365 q 589 366 578 365 q 611 368 600 367 l 611 368 z "},"B":{"ha":1014,"x_min":3,"x_max":988,"o":"m 986 263 q 911 76 985 157 q 728 -4 838 -4 q 572 42 639 -4 q 506 185 506 89 q 546 288 506 243 q 646 332 586 332 q 740 299 699 332 q 781 208 781 265 l 675 208 q 669 219 675 215 q 656 225 664 224 q 651 226 653 226 q 646 226 649 226 q 623 215 632 226 q 611 192 614 204 q 611 188 611 190 q 611 185 611 186 q 648 117 611 135 q 728 100 685 100 q 836 150 793 100 q 881 263 879 200 q 793 445 882 386 q 593 504 704 504 q 535 504 564 504 q 476 503 506 504 l 476 608 q 548 619 517 608 q 601 647 579 629 q 634 690 624 667 q 644 739 644 714 q 633 790 644 765 q 599 832 621 814 q 539 862 574 851 q 464 872 504 872 l 456 872 l 456 106 l 499 106 l 499 0 l 3 0 l 3 106 l 106 106 l 106 872 l 3 872 l 3 978 q 119 978 61 978 q 233 978 176 978 q 348 978 290 978 q 464 978 406 978 q 473 978 468 978 q 483 978 478 978 q 665 912 582 972 q 749 740 749 851 q 736 664 749 700 q 700 599 724 628 q 906 484 825 572 q 986 263 988 396 l 986 263 z "},"C":{"ha":946,"x_min":1,"x_max":939,"o":"m 939 238 q 747 59 867 119 q 499 -1 628 -1 q 490 -1 494 -1 q 482 -1 486 -1 q 304 35 392 0 q 147 139 217 71 q 38 303 75 211 q 1 493 1 396 q 39 684 1 592 q 150 849 76 776 q 312 954 219 915 q 511 993 404 993 q 536 992 524 993 q 561 990 549 992 q 785 903 683 978 q 885 692 886 829 q 816 526 883 596 q 651 456 749 456 q 517 501 575 456 q 458 626 458 546 q 499 715 458 678 q 589 753 540 751 q 591 753 590 753 q 593 753 592 753 l 593 647 q 587 647 590 647 q 581 643 583 646 q 569 636 574 640 q 564 626 564 632 q 590 577 564 592 q 647 561 617 563 q 649 561 649 561 q 651 561 650 561 q 742 601 706 561 q 779 692 778 640 q 718 823 781 778 q 581 882 656 868 q 545 886 563 885 q 511 888 528 888 q 452 883 481 888 q 396 872 424 879 l 396 115 q 450 106 422 110 q 506 103 478 103 q 701 153 608 103 q 849 292 794 203 l 939 238 l 939 238 z "},"D":{"ha":989,"x_min":10,"x_max":969,"o":"m 969 429 q 937 233 969 315 q 840 99 904 151 q 690 24 779 47 q 486 0 601 0 l 10 0 l 10 106 l 75 106 l 75 872 l 10 872 l 10 978 l 415 978 q 423 978 419 978 q 431 978 426 978 q 629 928 532 974 q 803 808 726 883 q 924 638 878 736 q 969 429 969 540 l 969 429 m 864 429 q 827 596 864 518 q 729 733 790 674 q 601 826 672 790 q 456 869 529 863 q 441 872 449 871 q 425 872 433 872 l 425 106 l 486 106 q 655 123 583 106 q 774 179 726 140 q 841 278 818 217 q 864 429 864 340 l 864 429 z "},"E":{"ha":989,"x_min":13,"x_max":982,"o":"m 982 261 q 981 244 982 253 q 979 225 981 235 q 950 144 972 183 q 890 72 928 104 q 801 20 853 40 q 686 0 750 0 l 14 0 l 14 106 q 35 106 25 106 q 57 106 46 106 q 78 106 68 106 q 100 106 89 106 l 100 872 l 13 872 l 13 978 l 683 978 l 808 767 l 718 713 l 624 872 l 450 872 l 450 628 l 517 628 l 517 707 l 622 707 l 622 444 l 517 444 l 517 522 l 450 522 l 450 106 q 509 106 479 106 q 568 106 539 106 q 627 106 597 106 q 686 106 657 106 q 764 118 731 106 q 822 151 797 131 q 854 188 842 168 q 872 229 867 208 q 875 245 874 238 q 876 261 876 253 q 876 276 876 268 q 874 292 875 285 q 843 360 867 329 q 778 390 819 390 q 767 390 772 390 q 756 388 761 389 q 727 376 740 385 q 714 349 714 367 q 720 333 714 339 q 736 328 726 328 l 736 222 q 643 262 676 222 q 610 351 610 301 q 610 359 610 356 q 611 365 610 363 q 626 414 614 390 q 661 457 639 438 q 711 485 682 475 q 776 496 740 494 q 928 424 875 497 q 982 261 981 351 l 982 261 z "},"F":{"ha":808,"x_min":0,"x_max":796,"o":"m 796 767 l 704 713 l 610 872 l 436 872 l 436 628 l 504 628 l 504 707 l 608 707 l 608 444 l 504 444 l 504 522 l 436 522 l 436 106 l 546 106 l 546 0 l 1 0 l 1 106 l 88 106 l 88 872 l 0 872 l 0 978 l 671 978 l 796 767 l 796 767 z "},"G":{"ha":1010,"x_min":8,"x_max":992,"o":"m 992 279 l 936 279 l 936 149 q 843 80 892 110 q 736 31 794 50 q 658 10 697 18 q 578 0 618 1 q 552 -2 565 -1 q 525 -3 539 -3 q 326 31 424 -3 q 154 139 229 65 q 45 303 82 211 q 8 493 8 396 q 46 684 8 592 q 157 849 83 776 q 319 954 226 915 q 518 993 411 993 q 542 992 531 993 q 565 990 554 992 q 792 905 689 979 q 893 692 894 831 q 824 526 892 596 q 658 456 757 456 q 524 501 582 456 q 467 626 467 546 q 508 715 467 678 q 597 753 549 751 q 599 753 599 753 q 601 753 600 753 l 601 647 q 595 647 599 647 q 589 643 592 646 q 577 636 582 640 q 572 626 572 632 q 597 577 572 592 q 651 561 621 563 q 655 561 653 561 q 658 561 657 561 q 749 601 713 561 q 788 692 786 640 q 726 823 789 778 q 589 881 664 868 q 553 886 571 885 q 518 888 535 888 q 465 884 492 888 q 411 874 438 881 l 411 114 q 462 106 436 108 q 514 103 488 103 q 542 103 528 103 q 569 106 556 104 q 596 108 582 106 q 624 111 610 110 l 624 279 l 488 279 l 488 385 l 992 385 l 992 279 l 992 279 z "},"H":{"ha":1181,"x_min":1,"x_max":1154,"o":"m 1154 0 l 610 0 l 610 106 l 696 106 l 696 522 l 438 522 l 438 106 l 546 106 l 546 0 l 1 0 l 1 106 l 88 106 l 88 872 l 1 872 l 1 978 l 546 978 l 546 872 l 438 872 l 438 628 l 696 628 l 696 872 l 610 872 l 610 978 l 1154 978 l 1154 872 l 1046 872 l 1046 106 l 1154 106 l 1154 0 l 1154 0 z "},"I":{"ha":574,"x_min":3,"x_max":546,"o":"m 546 0 l 3 0 l 3 106 l 99 106 l 99 872 l 3 872 l 3 978 l 546 978 l 546 872 l 449 872 l 449 106 l 546 106 l 546 0 l 546 0 z "},"J":{"ha":882,"x_min":3,"x_max":850,"o":"m 850 872 l 733 872 q 733 744 733 810 q 735 613 733 679 q 735 480 735 546 q 735 351 735 414 q 716 202 735 268 q 650 88 697 136 q 529 16 604 40 q 342 -7 454 -8 q 207 11 267 -7 q 106 61 147 29 q 28 149 54 97 q 3 256 3 200 q 56 420 3 353 q 211 488 108 488 q 322 446 272 488 q 372 339 372 404 q 336 242 372 282 q 240 203 300 203 l 240 308 q 261 317 256 308 q 267 336 267 325 q 263 353 267 344 q 253 367 260 361 q 233 378 244 375 q 208 382 221 382 q 205 382 207 382 q 201 382 203 382 q 165 372 182 381 q 136 353 147 364 q 115 313 122 338 q 107 256 107 289 q 157 153 107 189 q 267 106 207 118 q 305 99 286 101 q 342 97 324 97 q 368 97 356 97 q 392 97 381 97 l 392 872 l 289 872 l 289 978 l 850 978 l 850 872 l 850 872 z "},"K":{"ha":1081,"x_min":7,"x_max":1064,"o":"m 1064 90 q 991 22 1038 47 q 893 -3 944 -3 q 883 -3 888 -3 q 872 -1 878 -3 q 738 72 789 8 q 663 211 686 136 q 583 354 636 290 q 447 440 529 418 l 442 432 l 442 106 l 551 106 l 551 0 l 7 0 l 7 106 l 93 106 l 93 872 l 7 872 l 7 978 l 551 978 l 551 872 l 442 872 l 442 642 q 473 694 457 668 q 503 744 489 719 q 597 869 544 818 q 706 947 650 921 q 769 970 738 963 q 831 978 800 978 q 890 970 861 978 q 946 946 919 963 q 1001 886 983 924 q 1018 808 1019 849 q 1018 806 1018 807 q 1018 804 1018 806 q 978 691 1017 743 q 872 633 940 639 q 859 633 865 633 q 846 633 853 633 q 795 647 821 636 q 746 676 769 658 l 811 758 q 824 749 818 753 q 838 743 831 746 q 851 740 844 740 q 864 739 858 739 q 899 759 886 740 q 914 800 911 778 q 914 805 914 803 q 914 808 914 807 q 907 836 913 824 q 890 856 901 849 q 860 869 876 865 q 828 874 844 874 q 803 871 817 874 q 778 864 790 868 q 766 858 772 861 q 753 853 760 856 q 669 791 710 832 q 594 692 628 750 l 501 533 q 665 421 599 500 q 763 243 731 342 q 799 164 778 194 q 844 118 821 133 q 870 106 857 110 q 897 101 883 101 q 941 113 921 103 q 975 146 961 124 l 1064 90 l 1064 90 z "},"L":{"ha":997,"x_min":-3,"x_max":964,"o":"m 908 422 q 951 347 938 388 q 964 265 964 307 q 941 158 964 210 q 874 68 918 106 q 785 17 836 36 q 669 -3 733 -3 q 502 -3 586 -3 q 333 -3 418 -3 q 165 -3 249 -3 q -1 -3 81 -3 l -3 101 q 17 101 7 101 q 36 101 26 101 q 54 101 44 101 q 74 101 64 101 l 74 868 l -3 868 l -3 974 l 506 974 l 506 868 l 417 868 l 417 101 q 480 101 449 101 q 543 101 511 101 q 606 101 575 101 q 669 101 638 101 q 689 102 679 101 q 708 106 699 103 q 813 155 765 115 q 858 257 860 194 q 858 272 858 264 q 856 288 857 281 q 826 356 849 325 q 760 386 803 386 q 750 385 756 386 q 739 385 744 385 q 710 372 724 381 q 697 344 697 363 q 703 329 697 335 q 719 324 710 324 l 719 218 q 626 258 660 218 q 593 347 592 297 q 593 355 593 351 q 594 361 593 358 q 610 410 597 386 q 644 453 622 433 q 697 482 668 472 q 757 492 726 492 q 840 474 800 492 q 908 422 881 456 l 908 422 z "},"M":{"ha":1318,"x_min":3,"x_max":1279,"o":"m 1279 0 l 735 0 l 735 106 l 828 106 l 828 629 l 681 272 l 583 272 l 438 624 l 438 106 l 546 106 l 546 0 l 3 0 l 3 106 l 88 106 l 88 872 l 3 872 l 3 978 l 406 978 l 632 431 l 857 978 l 1260 978 l 1260 872 l 1178 872 l 1178 106 l 1279 106 l 1279 0 l 1279 0 z "},"N":{"ha":1185,"x_min":3,"x_max":1157,"o":"m 1157 875 l 1058 875 l 1058 0 l 896 0 l 438 617 l 438 106 l 546 106 l 546 0 l 3 0 l 3 106 l 88 106 l 88 872 l 3 872 l 3 978 l 300 978 l 736 392 l 736 875 l 638 875 l 638 979 l 1157 979 l 1157 875 l 1157 875 z "},"O":{"ha":983,"x_min":0,"x_max":976,"o":"m 976 489 q 833 144 976 288 q 488 0 690 0 q 143 144 286 0 q 0 489 0 288 q 143 835 0 692 q 488 978 286 978 q 833 835 690 978 q 976 489 976 692 l 976 489 m 871 489 q 759 759 871 646 q 488 872 647 872 q 442 869 465 872 q 397 861 419 867 l 397 117 q 442 108 419 111 q 488 106 465 106 q 758 218 646 106 q 871 489 871 331 l 871 489 z "},"P":{"ha":965,"x_min":3,"x_max":976,"o":"m 976 581 q 976 565 976 572 q 975 549 975 557 q 872 338 963 433 q 664 244 782 243 q 544 283 596 246 q 493 396 493 321 q 540 495 493 454 q 640 539 586 536 q 645 539 643 539 q 649 539 647 539 q 697 531 674 539 q 742 508 719 524 l 683 421 q 673 426 678 424 q 664 431 668 429 q 656 433 660 432 q 647 433 651 433 q 613 420 629 433 q 597 390 597 407 q 601 377 597 383 q 611 364 604 371 q 633 354 619 358 q 665 350 646 350 q 791 406 735 349 q 865 531 847 463 q 869 556 868 543 q 871 581 871 568 q 847 703 871 650 q 785 792 824 756 q 677 855 739 835 q 550 875 615 875 q 524 875 549 875 q 460 875 500 875 l 460 106 l 586 106 l 586 0 l 3 0 l 3 106 l 110 106 l 110 875 l 4 875 l 4 981 l 550 981 q 563 981 557 981 q 576 979 569 981 q 727 949 654 976 q 857 868 800 921 q 942 747 910 818 q 976 581 975 675 l 976 581 z "},"Q":{"ha":1029,"x_min":10,"x_max":1010,"o":"m 1010 -4 q 899 -85 963 -56 q 765 -112 836 -114 q 663 -94 710 -111 q 581 -50 615 -78 q 556 -28 567 -40 q 535 -1 544 -15 q 528 -1 532 -1 q 522 -1 525 -1 q 515 -1 518 -1 q 508 -1 511 -1 q 156 144 303 -1 q 10 496 10 290 q 156 849 10 703 q 508 994 303 994 q 860 849 714 994 q 1007 496 1007 703 q 910 200 1007 331 q 661 21 813 69 q 708 2 682 8 q 767 -6 735 -4 q 857 13 815 -6 q 931 68 899 32 l 1010 -4 l 1010 -4 m 900 496 q 785 772 900 657 q 508 888 671 888 q 462 885 485 888 q 417 876 439 882 l 417 115 q 457 108 436 111 q 499 104 478 106 q 499 110 499 107 q 499 114 499 113 q 511 200 499 163 q 546 264 524 238 q 606 310 571 294 q 679 325 642 325 q 748 310 715 325 q 803 267 781 296 q 806 263 804 265 q 808 260 807 261 q 811 256 810 258 q 814 253 813 254 q 877 365 854 303 q 900 496 900 428 l 900 496 m 736 178 q 732 183 735 181 q 728 189 729 186 q 723 194 725 192 q 718 200 721 197 q 704 213 713 208 q 686 217 696 217 q 623 187 639 217 q 606 117 607 157 q 674 142 642 126 q 736 178 707 157 l 736 178 z "},"R":{"ha":1138,"x_min":1,"x_max":1126,"o":"m 1126 96 q 1055 28 1100 53 q 958 3 1010 3 q 953 3 956 3 q 947 3 950 3 q 940 3 943 3 q 935 4 938 4 q 803 76 854 14 q 726 213 751 139 q 726 214 726 213 q 725 217 725 215 q 719 233 722 225 q 714 249 717 240 q 628 383 685 321 q 492 457 571 444 l 492 563 q 515 563 503 563 q 539 563 526 563 q 562 563 550 563 q 585 563 574 563 q 588 563 586 563 q 593 563 590 563 q 686 610 643 567 q 729 707 729 654 q 659 838 728 800 q 508 875 590 875 q 490 875 503 875 q 457 875 476 875 l 457 106 l 583 106 l 583 0 l 1 0 l 1 106 l 107 106 l 107 875 l 35 875 l 35 981 q 110 981 36 981 q 274 981 185 981 q 422 981 353 981 q 508 981 490 981 q 735 913 636 981 q 835 707 833 846 q 790 571 835 631 q 678 479 746 511 q 767 375 731 435 q 825 250 804 315 q 863 169 840 200 q 908 124 885 139 q 922 117 915 119 q 935 113 928 114 q 947 109 940 110 q 960 108 954 108 q 1003 119 983 108 q 1038 153 1024 131 l 1126 96 l 1126 96 z "},"S":{"ha":811,"x_min":0,"x_max":793,"o":"m 793 296 q 760 182 793 236 q 671 86 726 128 q 542 23 614 43 q 394 3 469 3 q 385 3 390 3 q 376 3 381 3 q 248 24 311 6 q 132 76 185 43 q 58 141 88 106 q 14 214 29 176 q 3 253 7 233 q 0 290 0 272 q 47 419 0 368 q 174 469 93 471 q 274 431 233 469 q 315 332 315 393 q 315 330 315 331 q 315 328 315 329 q 282 253 314 288 q 207 219 250 219 q 159 233 181 219 q 122 267 138 246 l 207 329 q 209 329 208 328 q 210 333 210 331 q 210 338 210 336 q 208 343 210 340 q 206 349 207 346 q 201 356 204 353 q 190 362 197 360 q 172 364 183 364 q 122 344 138 365 q 104 290 106 324 q 108 265 104 278 q 118 239 111 253 q 146 201 128 219 q 189 165 164 182 q 276 126 228 140 q 376 110 325 113 q 389 108 382 108 q 403 108 396 108 q 467 113 435 108 q 526 128 499 118 q 531 134 529 131 q 533 142 533 138 q 535 145 535 143 q 535 149 535 147 q 533 163 535 156 q 528 176 531 169 q 517 194 524 185 q 506 211 511 203 q 492 226 499 219 q 482 238 486 233 q 396 323 439 281 q 311 408 353 365 q 225 494 268 451 q 139 578 182 536 q 92 649 108 610 q 76 731 76 688 q 175 911 76 851 q 392 979 274 971 q 411 981 401 981 q 431 981 421 981 q 538 970 486 981 q 628 940 589 960 q 704 879 678 915 q 731 800 731 843 q 688 704 731 735 q 585 675 646 674 l 585 781 q 587 781 586 781 q 588 781 588 781 q 615 781 604 779 q 625 800 625 783 q 624 808 625 804 q 619 815 622 811 q 606 831 615 824 q 582 846 596 839 q 526 865 557 858 q 461 875 494 872 q 444 876 453 876 q 426 876 435 876 q 386 874 406 876 q 349 869 367 872 q 347 866 347 868 q 347 861 347 864 q 349 851 347 857 q 353 840 350 846 q 356 832 354 836 q 360 825 358 828 q 365 817 363 821 q 369 811 368 813 q 551 630 460 721 q 732 449 642 539 q 778 378 763 418 q 793 296 793 339 l 793 296 z "},"T":{"ha":1154,"x_min":0,"x_max":1129,"o":"m 1129 938 q 1061 876 1104 896 q 971 850 1018 857 q 942 847 957 849 q 914 846 928 846 q 849 846 881 844 q 788 850 818 847 l 788 106 l 896 106 l 896 0 l 329 0 l 329 106 l 438 106 l 438 892 q 417 892 428 892 q 396 892 407 892 q 374 892 385 892 q 351 890 363 892 q 182 837 258 883 q 107 683 106 790 q 133 596 107 631 q 214 563 158 561 q 256 573 238 563 q 274 610 274 583 q 273 614 274 611 q 271 619 272 617 q 265 629 268 625 q 257 633 261 633 l 257 739 q 344 699 308 739 q 379 610 379 658 q 331 498 379 539 q 215 457 282 457 q 59 521 115 456 q 1 682 3 586 q 29 816 0 757 q 111 917 58 875 q 247 981 172 964 q 397 999 321 999 q 417 998 407 999 q 438 997 428 997 q 538 988 488 994 q 635 975 588 982 q 645 973 640 974 q 654 972 650 972 q 776 957 714 964 q 911 951 839 950 q 938 953 922 951 q 968 957 953 954 q 1010 969 990 961 q 1039 992 1029 976 l 1129 938 l 1129 938 z "},"U":{"ha":1038,"x_min":0,"x_max":1014,"o":"m 1014 -15 q 883 28 940 -14 q 803 138 826 71 q 665 29 747 69 q 488 -11 582 -11 q 329 21 403 -11 q 199 108 256 53 q 111 238 143 164 q 79 397 79 313 l 79 875 l 0 875 l 0 981 l 507 981 l 507 875 l 424 875 l 424 100 q 455 95 439 97 q 488 93 471 93 q 703 182 614 93 q 792 397 792 271 l 792 410 l 792 875 l 697 875 l 697 981 l 979 981 l 979 875 l 897 875 l 897 397 l 897 207 q 932 125 897 160 q 1014 90 967 90 l 1014 -15 l 1014 -15 z "},"V":{"ha":1094,"x_min":3,"x_max":1072,"o":"m 979 957 q 1048 874 1024 925 q 1072 758 1072 822 q 1047 626 1072 697 q 965 479 1022 556 l 603 -7 q 480 203 542 97 q 357 417 418 310 q 353 426 356 421 q 347 435 350 431 q 219 656 283 546 q 92 875 156 767 l 3 875 l 3 981 l 547 981 l 547 875 l 465 875 l 743 357 q 777 403 760 381 q 813 450 794 426 q 847 497 829 474 q 882 543 864 519 q 947 659 926 604 q 967 758 967 714 q 953 825 967 796 q 915 872 939 854 q 892 884 904 881 q 868 888 881 888 q 821 872 842 888 q 800 832 800 856 q 801 824 800 828 q 803 817 801 821 q 818 795 807 806 q 847 775 829 785 l 797 682 q 723 747 751 706 q 696 835 694 788 q 697 851 696 843 q 700 869 699 860 q 706 886 703 878 q 713 903 708 894 q 780 970 738 947 q 869 993 822 993 q 927 984 899 993 q 979 957 956 975 l 979 957 z "},"W":{"ha":1461,"x_min":3,"x_max":1463,"o":"m 1363 500 q 1201 254 1282 378 q 1038 7 1119 131 l 772 526 l 522 -4 l 93 875 l 3 875 l 3 981 l 546 981 l 546 875 l 464 875 l 636 485 l 868 976 l 1167 394 q 1194 435 1181 415 q 1221 476 1207 456 q 1247 517 1233 497 q 1274 558 1260 538 q 1285 576 1279 567 q 1299 597 1292 586 q 1326 654 1313 624 q 1349 717 1340 685 q 1355 746 1353 731 q 1357 775 1357 761 q 1344 834 1357 807 q 1301 879 1332 861 q 1284 887 1293 885 q 1265 889 1275 889 q 1217 873 1239 889 q 1196 833 1196 857 q 1197 824 1196 829 q 1200 814 1199 818 q 1215 794 1206 804 q 1242 775 1225 785 l 1192 682 q 1117 747 1146 706 q 1090 835 1089 788 q 1092 851 1090 843 q 1094 869 1093 860 q 1100 886 1097 878 q 1107 903 1103 894 q 1175 971 1131 947 q 1267 993 1219 994 q 1313 987 1290 993 q 1357 968 1336 981 q 1439 883 1415 932 q 1463 778 1463 833 q 1460 743 1463 761 q 1454 708 1458 725 q 1417 598 1443 651 q 1363 500 1392 544 l 1363 500 z "},"X":{"ha":1190,"x_min":0,"x_max":1158,"o":"m 1125 690 q 1067 639 1101 656 q 996 622 1033 622 q 978 623 988 622 q 960 626 968 624 q 922 639 940 631 q 888 658 904 647 q 855 693 868 672 q 836 736 842 714 l 938 763 q 958 738 942 746 q 992 729 974 729 q 995 729 993 729 q 999 729 997 729 q 1022 735 1011 731 q 1039 750 1032 740 q 1048 769 1044 758 q 1053 790 1051 779 q 1053 796 1053 793 q 1053 801 1053 799 q 1046 835 1053 819 q 1024 858 1039 850 q 996 869 1010 865 q 967 871 982 872 q 944 869 956 871 q 922 864 933 867 q 900 856 911 861 q 878 844 889 851 q 795 772 835 818 q 725 661 756 726 q 716 642 721 651 q 707 624 711 632 q 697 604 701 614 q 688 585 692 594 l 1028 104 l 1119 104 l 1119 -1 l 576 -1 l 576 104 l 654 104 l 521 293 q 513 276 517 285 q 506 260 508 268 q 424 127 471 183 q 325 38 378 71 q 283 15 304 25 q 239 0 261 6 q 210 -3 225 -1 q 182 -6 196 -6 q 133 0 157 -6 q 86 15 110 6 q 22 78 43 38 q 0 165 0 119 q 5 212 0 189 q 21 256 10 235 q 79 315 43 296 q 156 335 115 335 q 208 327 182 335 q 257 304 233 319 l 200 215 q 178 226 189 222 q 156 231 167 231 q 153 231 154 231 q 150 231 151 231 q 148 229 149 229 q 146 229 147 229 q 115 208 126 226 q 103 167 104 189 q 103 165 103 165 q 103 163 103 164 q 110 131 103 146 q 131 110 117 117 q 156 101 143 104 q 182 99 168 99 q 226 106 204 99 q 268 126 247 113 q 345 197 308 153 q 410 303 382 242 q 419 325 414 314 q 429 349 424 336 q 440 371 435 360 q 450 393 444 382 l 113 871 l 15 871 l 15 976 l 532 976 l 532 871 l 485 871 l 618 683 q 624 695 621 689 q 629 707 628 701 q 717 842 667 785 q 824 935 768 900 q 896 967 860 956 q 968 978 932 978 q 1020 972 994 978 q 1071 953 1046 965 q 1137 888 1115 931 q 1158 800 1158 846 q 1150 742 1158 771 q 1125 690 1142 714 l 1125 690 z "},"Y":{"ha":1192,"x_min":7,"x_max":1169,"o":"m 1169 821 l 1065 811 q 1065 816 1065 814 q 1064 819 1064 818 q 1044 851 1058 836 q 1013 869 1029 865 q 1004 871 1008 871 q 996 871 1000 871 q 988 870 992 871 q 978 869 983 869 q 938 851 958 864 q 903 824 918 838 q 894 815 899 819 q 886 807 890 811 q 826 714 851 768 q 786 603 800 660 q 777 553 781 578 q 774 504 774 528 q 774 404 774 454 q 774 306 774 354 q 774 272 774 289 q 774 239 774 256 q 774 172 774 206 q 774 106 774 139 l 906 106 l 906 0 l 315 0 l 315 106 l 425 106 q 425 217 425 161 q 425 329 425 274 q 425 441 425 385 q 425 553 425 497 q 425 584 425 568 q 424 617 425 600 q 392 802 419 718 q 288 885 365 886 q 167 841 222 883 q 114 726 113 799 q 138 653 114 686 q 206 621 163 621 q 210 621 208 621 q 215 621 213 621 q 256 633 238 622 q 274 669 274 644 q 273 672 274 671 q 271 674 272 672 q 268 676 269 675 q 264 678 267 676 q 259 680 261 679 q 256 681 257 681 l 256 786 q 340 752 301 786 q 378 669 378 718 q 326 556 378 597 q 206 515 275 515 q 63 578 117 515 q 8 725 10 640 q 106 924 7 857 q 322 993 204 992 q 324 993 324 993 q 326 993 325 993 q 563 925 458 993 q 722 742 667 857 q 734 767 728 754 q 749 794 740 781 q 853 920 789 863 q 996 978 917 978 q 1017 976 1007 978 q 1038 972 1028 975 q 1126 917 1089 961 q 1169 821 1164 874 l 1169 821 z "},"Z":{"ha":1085,"x_min":1,"x_max":1063,"o":"m 1060 282 q 967 62 1063 126 q 729 -3 871 -3 q 550 -3 642 -3 q 365 -3 458 -3 q 181 -3 272 -3 q 1 -3 89 -3 l 588 868 q 528 868 560 868 q 464 868 496 868 q 399 868 431 868 q 339 868 367 868 q 231 860 275 868 q 158 832 186 851 q 125 789 136 817 q 113 731 114 761 q 113 727 113 729 q 113 724 113 725 q 120 676 113 699 q 143 639 128 654 q 171 622 154 629 q 206 613 188 614 q 209 613 207 613 q 214 613 211 613 q 242 618 229 613 q 265 636 256 624 q 276 656 272 644 q 279 678 279 667 q 275 701 279 690 q 261 719 271 713 l 329 800 q 367 754 353 781 q 382 696 381 728 q 334 557 389 607 q 207 507 279 507 q 197 507 201 507 q 186 508 192 507 q 126 525 156 511 q 71 563 97 539 q 23 638 39 594 q 7 726 7 681 q 7 731 7 729 q 7 735 7 733 q 31 838 8 789 q 96 917 54 886 q 199 960 139 947 q 339 974 258 974 q 511 974 422 974 q 689 974 600 974 q 874 974 782 974 q 1054 974 967 974 l 469 101 q 532 101 499 101 q 600 101 565 101 q 667 101 633 101 q 729 101 700 101 q 836 113 792 101 q 907 147 881 125 q 942 194 929 165 q 956 256 954 224 q 956 259 956 257 q 956 264 956 261 q 933 341 956 307 q 861 375 910 375 q 853 375 857 375 q 844 374 849 375 q 803 351 817 369 q 790 308 790 333 q 790 304 790 307 q 790 300 790 301 q 791 295 790 297 q 792 290 792 293 l 688 274 q 685 294 686 285 q 685 311 685 303 q 739 436 685 394 q 861 478 793 478 q 865 478 863 478 q 869 478 867 478 q 999 426 940 475 q 1060 282 1058 378 l 1060 282 z "},"[":{"ha":694,"x_min":0,"x_max":0,"o":""},"\\":{"ha":694,"x_min":0,"x_max":0,"o":""},"]":{"ha":694,"x_min":0,"x_max":0,"o":""},"^":{"ha":694,"x_min":0,"x_max":0,"o":""},"_":{"ha":694,"x_min":0,"x_max":0,"o":""},"`":{"ha":440,"x_min":58,"x_max":399,"o":"m 399 971 l 360 899 l 58 1040 l 190 1096 l 399 971 l 399 971 z "},"a":{"ha":1533,"x_min":0,"x_max":1510,"o":"m 1510 0 l 903 0 l 903 106 l 1018 106 l 1018 161 q 976 221 1000 190 q 926 283 953 251 q 900 314 914 299 q 872 344 886 329 q 830 390 851 368 q 785 429 808 411 q 751 376 768 403 q 718 321 735 349 q 690 274 704 299 q 660 226 675 250 q 506 26 593 119 q 289 -92 419 -67 q 262 -96 275 -94 q 235 -97 249 -97 q 84 -50 153 -97 q 0 83 15 -3 l 103 103 q 151 31 113 54 q 235 8 190 7 q 243 8 239 8 q 253 8 247 8 q 261 9 257 8 q 269 11 265 10 q 435 102 365 29 q 557 258 504 175 q 594 319 576 289 q 628 376 611 349 q 665 434 646 404 q 701 494 683 464 q 693 500 697 497 q 686 504 689 503 q 678 510 682 507 q 669 514 674 513 q 538 571 597 554 q 429 588 478 588 q 324 565 365 588 q 264 517 283 543 q 262 513 263 515 q 260 510 261 511 q 252 493 256 501 q 246 476 249 485 q 243 458 244 467 q 242 442 242 450 q 262 379 242 407 q 321 340 282 351 l 292 239 q 206 285 244 254 q 150 364 168 315 q 141 401 144 382 q 138 439 138 419 q 138 455 138 447 q 139 471 139 463 q 150 517 143 494 q 168 561 157 540 q 172 569 169 565 q 176 575 175 572 q 272 656 207 619 q 432 692 336 692 q 565 672 493 692 q 722 606 638 653 q 734 599 728 603 q 747 590 740 594 q 753 586 750 588 q 760 582 757 585 q 887 750 818 668 q 1039 899 956 832 q 1194 971 1110 956 q 1368 986 1279 986 q 1402 986 1385 986 q 1438 985 1419 986 q 1468 985 1453 985 q 1499 985 1483 985 l 1499 879 q 1433 879 1465 879 q 1368 879 1400 879 l 1368 106 l 1510 106 l 1510 0 l 1510 0 m 1018 338 l 1018 739 q 926 633 969 689 q 843 518 883 576 q 897 470 871 496 q 950 417 924 444 q 985 377 968 397 q 1018 338 1003 357 l 1018 338 z "},"b":{"ha":1014,"x_min":3,"x_max":988,"o":"m 986 263 q 911 76 985 157 q 728 -4 838 -4 q 572 42 639 -4 q 506 185 506 89 q 546 288 506 243 q 646 332 586 332 q 740 299 699 332 q 781 208 781 265 l 675 208 q 669 219 675 215 q 656 225 664 224 q 651 226 653 226 q 646 226 649 226 q 623 215 632 226 q 611 192 614 204 q 611 188 611 190 q 611 185 611 186 q 648 117 611 135 q 728 100 685 100 q 836 150 793 100 q 881 263 879 200 q 793 445 882 386 q 593 504 704 504 q 535 504 564 504 q 476 503 506 504 l 476 608 q 548 619 517 608 q 601 647 579 629 q 634 690 624 667 q 644 739 644 714 q 633 790 644 765 q 599 832 621 814 q 539 862 574 851 q 464 872 504 872 l 456 872 l 456 106 l 499 106 l 499 0 l 3 0 l 3 106 l 106 106 l 106 872 l 3 872 l 3 978 q 119 978 61 978 q 233 978 176 978 q 348 978 290 978 q 464 978 406 978 q 473 978 468 978 q 483 978 478 978 q 665 912 582 972 q 749 740 749 851 q 736 664 749 700 q 700 599 724 628 q 906 484 825 572 q 986 263 988 396 l 986 263 z "},"c":{"ha":946,"x_min":1,"x_max":939,"o":"m 939 238 q 747 59 867 119 q 499 -1 628 -1 q 490 -1 494 -1 q 482 -1 486 -1 q 304 35 392 0 q 147 139 217 71 q 38 303 75 211 q 1 493 1 396 q 39 684 1 592 q 150 849 76 776 q 312 954 219 915 q 511 993 404 993 q 536 992 524 993 q 561 990 549 992 q 785 903 683 978 q 885 692 886 829 q 816 526 883 596 q 651 456 749 456 q 517 501 575 456 q 458 626 458 546 q 499 715 458 678 q 589 753 540 751 q 591 753 590 753 q 593 753 592 753 l 593 647 q 587 647 590 647 q 581 643 583 646 q 569 636 574 640 q 564 626 564 632 q 590 577 564 592 q 647 561 617 563 q 649 561 649 561 q 651 561 650 561 q 742 601 706 561 q 779 692 778 640 q 718 823 781 778 q 581 882 656 868 q 545 886 563 885 q 511 888 528 888 q 452 883 481 888 q 396 872 424 879 l 396 115 q 450 106 422 110 q 506 103 478 103 q 701 153 608 103 q 849 292 794 203 l 939 238 l 939 238 z "},"d":{"ha":989,"x_min":10,"x_max":969,"o":"m 969 429 q 937 233 969 315 q 840 99 904 151 q 690 24 779 47 q 486 0 601 0 l 10 0 l 10 106 l 75 106 l 75 872 l 10 872 l 10 978 l 415 978 q 423 978 419 978 q 431 978 426 978 q 629 928 532 974 q 803 808 726 883 q 924 638 878 736 q 969 429 969 540 l 969 429 m 864 429 q 827 596 864 518 q 729 733 790 674 q 601 826 672 790 q 456 869 529 863 q 441 872 449 871 q 425 872 433 872 l 425 106 l 486 106 q 655 123 583 106 q 774 179 726 140 q 841 278 818 217 q 864 429 864 340 l 864 429 z "},"e":{"ha":1201,"x_min":3,"x_max":1169,"o":"m 1169 338 q 1053 84 1169 168 q 781 0 938 0 l 4 0 l 4 106 q 26 106 15 106 q 47 106 36 106 q 69 106 58 106 q 90 106 79 106 l 90 872 l 3 872 l 3 978 l 674 978 l 689 951 l 799 767 l 708 713 l 614 872 l 440 872 l 440 628 l 507 628 l 507 707 l 613 707 l 613 444 l 507 444 l 507 522 l 440 522 l 440 107 q 610 106 525 106 q 781 106 696 106 q 978 159 892 106 q 1064 338 1064 213 q 1022 429 1064 389 q 928 471 979 469 q 926 471 926 471 q 924 471 925 471 q 865 458 888 471 q 832 428 842 446 q 827 417 829 424 q 824 406 825 411 q 824 400 824 403 q 824 394 824 397 q 833 363 824 376 q 864 347 843 350 q 885 356 878 346 q 893 378 892 365 q 894 383 894 381 q 894 386 894 385 l 1000 381 q 960 283 996 325 q 868 242 925 242 q 865 242 867 242 q 861 243 863 243 q 858 243 860 243 q 854 243 856 243 q 753 295 789 250 q 718 396 717 340 q 719 413 718 404 q 721 431 719 421 q 728 456 724 443 q 740 481 733 468 q 809 548 764 521 q 922 576 854 575 q 1093 506 1018 579 q 1169 338 1168 433 l 1169 338 z "},"f":{"ha":808,"x_min":0,"x_max":796,"o":"m 796 767 l 704 713 l 610 872 l 436 872 l 436 628 l 504 628 l 504 707 l 608 707 l 608 444 l 504 444 l 504 522 l 436 522 l 436 106 l 546 106 l 546 0 l 1 0 l 1 106 l 88 106 l 88 872 l 0 872 l 0 978 l 671 978 l 796 767 l 796 767 z "},"g":{"ha":1010,"x_min":8,"x_max":992,"o":"m 992 279 l 936 279 l 936 149 q 843 80 892 110 q 736 31 794 50 q 658 10 697 18 q 578 0 618 1 q 552 -2 565 -1 q 525 -3 539 -3 q 326 31 424 -3 q 154 139 229 65 q 45 303 82 211 q 8 493 8 396 q 46 684 8 592 q 157 849 83 776 q 319 954 226 915 q 518 993 411 993 q 542 992 531 993 q 565 990 554 992 q 792 905 689 979 q 893 692 894 831 q 824 526 892 596 q 658 456 757 456 q 524 501 582 456 q 467 626 467 546 q 508 715 467 678 q 597 753 549 751 q 599 753 599 753 q 601 753 600 753 l 601 647 q 595 647 599 647 q 589 643 592 646 q 577 636 582 640 q 572 626 572 632 q 597 577 572 592 q 651 561 621 563 q 655 561 653 561 q 658 561 657 561 q 749 601 713 561 q 788 692 786 640 q 726 823 789 778 q 589 881 664 868 q 553 886 571 885 q 518 888 535 888 q 465 884 492 888 q 411 874 438 881 l 411 114 q 462 106 436 108 q 514 103 488 103 q 542 103 528 103 q 569 106 556 104 q 596 108 582 106 q 624 111 610 110 l 624 279 l 488 279 l 488 385 l 992 385 l 992 279 l 992 279 z "},"h":{"ha":1181,"x_min":1,"x_max":1154,"o":"m 1154 0 l 610 0 l 610 106 l 696 106 l 696 522 l 438 522 l 438 106 l 546 106 l 546 0 l 1 0 l 1 106 l 88 106 l 88 872 l 1 872 l 1 978 l 546 978 l 546 872 l 438 872 l 438 628 l 696 628 l 696 872 l 610 872 l 610 978 l 1154 978 l 1154 872 l 1046 872 l 1046 106 l 1154 106 l 1154 0 l 1154 0 z "},"i":{"ha":574,"x_min":3,"x_max":546,"o":"m 546 0 l 3 0 l 3 106 l 99 106 l 99 872 l 3 872 l 3 978 l 546 978 l 546 872 l 449 872 l 449 106 l 546 106 l 546 0 l 546 0 z "},"j":{"ha":882,"x_min":3,"x_max":850,"o":"m 850 872 l 733 872 q 733 744 733 810 q 735 613 733 679 q 735 480 735 546 q 735 351 735 414 q 716 202 735 268 q 650 88 697 136 q 529 16 604 40 q 342 -7 454 -8 q 207 11 267 -7 q 106 61 147 29 q 28 149 54 97 q 3 256 3 200 q 56 420 3 353 q 211 488 108 488 q 322 446 272 488 q 372 339 372 404 q 336 242 372 282 q 240 203 300 203 l 240 308 q 261 317 256 308 q 267 336 267 325 q 263 353 267 344 q 253 367 260 361 q 233 378 244 375 q 208 382 221 382 q 205 382 207 382 q 201 382 203 382 q 165 372 182 381 q 136 353 147 364 q 115 313 122 338 q 107 256 107 289 q 157 153 107 189 q 267 106 207 118 q 305 99 286 101 q 342 97 324 97 q 368 97 356 97 q 392 97 381 97 l 392 872 l 289 872 l 289 978 l 850 978 l 850 872 l 850 872 z "},"k":{"ha":1394,"x_min":1,"x_max":1361,"o":"m 1361 214 q 1269 35 1356 104 q 1076 -33 1182 -35 q 1055 -33 1065 -33 q 1033 -31 1044 -33 q 842 57 924 -14 q 693 211 761 128 q 671 239 682 225 q 649 267 660 253 q 610 315 629 290 q 572 361 592 339 l 572 360 q 513 410 546 389 q 442 440 481 431 l 436 432 l 436 106 l 544 106 l 544 0 l 1 0 l 1 106 l 86 106 l 86 872 l 1 872 l 1 978 l 544 978 l 544 872 l 436 872 l 436 642 q 444 656 440 649 q 451 669 449 663 q 555 827 500 751 q 700 947 610 903 q 763 970 732 963 q 825 978 794 978 q 884 970 856 978 q 939 946 913 963 q 995 886 978 924 q 1013 808 1013 849 q 1013 806 1013 807 q 1013 804 1013 806 q 972 691 1011 743 q 867 633 933 639 q 850 633 858 633 q 835 635 842 633 q 785 649 810 638 q 740 676 761 660 l 806 758 q 819 749 813 753 q 832 743 825 746 q 846 740 839 740 q 858 739 853 739 q 893 759 881 740 q 908 800 906 778 q 908 805 908 803 q 908 808 908 807 q 901 836 907 824 q 885 856 896 849 q 869 863 876 860 q 853 869 861 867 q 837 872 844 871 q 821 874 829 874 q 718 836 768 874 q 632 754 668 799 q 608 722 618 738 q 589 692 597 706 l 496 533 q 595 480 554 514 q 675 401 636 446 q 702 367 689 385 q 731 332 715 350 q 764 291 746 313 q 801 247 782 269 q 931 124 860 181 q 1079 69 1001 68 q 1146 83 1113 69 q 1214 126 1179 96 q 1245 173 1235 146 q 1256 229 1256 200 q 1256 235 1256 232 q 1256 240 1256 238 q 1246 284 1254 263 q 1224 321 1238 306 q 1213 331 1218 326 q 1203 340 1208 336 q 1171 358 1186 353 q 1142 363 1156 363 q 1135 363 1139 363 q 1129 361 1132 363 q 1094 343 1106 357 q 1082 314 1083 329 q 1082 311 1082 313 q 1082 308 1082 310 q 1090 284 1082 294 q 1113 274 1099 274 q 1125 278 1118 275 q 1140 286 1132 281 l 1204 204 q 1167 182 1186 190 q 1126 171 1147 174 q 1117 170 1122 171 q 1107 169 1113 169 q 1051 183 1078 169 q 1006 222 1025 196 q 983 266 990 244 q 976 310 976 288 q 1014 408 976 364 q 1108 464 1051 453 q 1119 466 1114 465 q 1129 467 1124 467 q 1138 468 1133 468 q 1149 468 1143 468 q 1298 394 1238 468 q 1361 233 1358 321 q 1361 223 1361 228 q 1361 214 1361 218 l 1361 214 z "},"l":{"ha":1457,"x_min":1,"x_max":1442,"o":"m 1371 540 q 1424 438 1407 493 q 1442 325 1442 382 q 1394 137 1442 228 q 1260 -7 1346 46 q 1111 -67 1190 -51 q 950 -83 1032 -83 q 901 -82 925 -83 q 851 -79 876 -81 q 730 -63 790 -74 q 611 -42 669 -53 q 588 -37 600 -39 q 564 -32 575 -35 q 380 1 469 -14 q 222 17 290 17 q 141 7 175 17 q 93 -28 107 -3 l 1 22 q 98 102 33 81 q 247 121 163 124 l 247 872 l 169 872 l 169 978 l 678 978 l 678 872 l 590 872 l 590 69 q 618 64 604 67 q 646 58 632 61 q 749 38 696 47 q 857 24 803 29 q 904 21 881 22 q 950 19 928 19 q 1084 33 1019 19 q 1204 82 1149 47 q 1300 184 1265 119 q 1336 318 1335 249 q 1336 322 1336 319 q 1336 326 1336 324 q 1324 405 1336 367 q 1288 476 1313 443 q 1222 534 1261 511 q 1142 564 1183 557 q 1122 567 1132 567 q 1103 568 1113 568 q 1006 535 1049 567 q 957 432 964 504 q 976 374 954 399 q 1025 350 997 350 q 1031 351 1028 350 q 1038 351 1035 351 q 1051 358 1044 354 q 1063 365 1057 361 l 1131 283 q 1097 263 1115 271 q 1061 250 1079 254 q 1044 247 1053 247 q 1026 246 1035 246 q 905 297 958 246 q 851 424 851 347 q 851 428 851 426 q 853 432 851 431 q 853 437 853 435 q 853 442 853 439 q 938 616 864 560 q 1104 672 1011 672 q 1124 672 1114 672 q 1143 669 1133 671 q 1267 629 1207 663 q 1371 540 1328 596 l 1371 540 z "},"m":{"ha":1318,"x_min":3,"x_max":1279,"o":"m 1279 0 l 735 0 l 735 106 l 828 106 l 828 629 l 681 272 l 583 272 l 438 624 l 438 106 l 546 106 l 546 0 l 3 0 l 3 106 l 88 106 l 88 872 l 3 872 l 3 978 l 406 978 l 632 431 l 857 978 l 1260 978 l 1260 872 l 1178 872 l 1178 106 l 1279 106 l 1279 0 l 1279 0 z "},"n":{"ha":1185,"x_min":3,"x_max":1157,"o":"m 1157 875 l 1058 875 l 1058 0 l 896 0 l 438 617 l 438 106 l 546 106 l 546 0 l 3 0 l 3 106 l 88 106 l 88 872 l 3 872 l 3 978 l 300 978 l 736 392 l 736 875 l 638 875 l 638 979 l 1157 979 l 1157 875 l 1157 875 z "},"o":{"ha":1007,"x_min":8,"x_max":985,"o":"m 922 731 q 963 637 949 685 q 982 540 978 589 q 984 516 983 528 q 985 492 985 504 q 851 151 985 303 q 497 0 717 0 q 152 144 296 0 q 8 489 8 288 q 123 803 8 668 q 407 969 238 938 l 407 861 l 407 257 l 407 117 q 452 108 429 111 q 497 106 475 106 q 774 223 668 106 q 879 490 881 340 q 878 521 879 506 q 875 551 876 536 q 860 613 869 582 q 833 674 850 644 q 792 726 818 703 q 725 768 765 750 q 702 776 714 774 q 678 778 690 778 q 672 778 675 778 q 667 778 669 778 q 594 751 628 774 q 546 694 560 728 q 538 668 540 682 q 535 639 535 654 q 543 601 535 619 q 571 572 551 583 q 584 567 578 569 q 596 565 590 565 q 626 576 614 567 q 638 600 638 586 q 631 618 638 610 q 611 633 625 626 l 658 726 q 723 672 703 704 q 743 604 743 639 q 700 504 742 549 q 597 460 658 460 q 560 465 579 460 q 522 479 542 469 q 450 547 472 506 q 428 635 428 588 q 428 649 428 642 q 429 664 429 657 q 481 781 439 725 q 583 864 522 838 q 630 878 607 874 q 675 882 653 882 q 817 840 750 882 q 922 731 883 797 l 922 731 z "},"p":{"ha":1000,"x_min":3,"x_max":976,"o":"m 976 581 q 976 565 976 572 q 975 549 975 557 q 872 338 963 433 q 664 244 782 243 q 544 283 596 246 q 493 396 493 321 q 540 495 493 454 q 640 539 586 536 q 645 539 643 539 q 649 539 647 539 q 697 531 674 539 q 742 508 719 524 l 683 421 q 673 426 678 424 q 664 431 668 429 q 656 433 660 432 q 647 433 651 433 q 613 420 629 433 q 597 390 597 407 q 601 377 597 383 q 611 364 604 371 q 633 354 619 358 q 665 350 646 350 q 791 406 735 349 q 865 531 847 463 q 869 556 868 543 q 871 581 871 568 q 847 703 871 650 q 785 792 824 756 q 677 855 739 835 q 550 875 615 875 q 524 875 549 875 q 460 875 500 875 l 460 106 l 586 106 l 586 0 l 3 0 l 3 106 l 110 106 l 110 875 l 4 875 l 4 981 l 550 981 q 563 981 557 981 q 576 979 569 981 q 727 949 654 976 q 857 868 800 921 q 942 747 910 818 q 976 581 975 675 l 976 581 z "},"q":{"ha":1029,"x_min":10,"x_max":1010,"o":"m 1010 -4 q 899 -85 963 -56 q 765 -112 836 -114 q 663 -94 710 -111 q 581 -50 615 -78 q 556 -28 567 -40 q 535 -1 544 -15 q 528 -1 532 -1 q 522 -1 525 -1 q 515 -1 518 -1 q 508 -1 511 -1 q 156 144 303 -1 q 10 496 10 290 q 156 849 10 703 q 508 994 303 994 q 860 849 714 994 q 1007 496 1007 703 q 910 200 1007 331 q 661 21 813 69 q 708 2 682 8 q 767 -6 735 -4 q 857 13 815 -6 q 931 68 899 32 l 1010 -4 l 1010 -4 m 900 496 q 785 772 900 657 q 508 888 671 888 q 462 885 485 888 q 417 876 439 882 l 417 115 q 457 108 436 111 q 499 104 478 106 q 499 110 499 107 q 499 114 499 113 q 511 200 499 163 q 546 264 524 238 q 606 310 571 294 q 679 325 642 325 q 748 310 715 325 q 803 267 781 296 q 806 263 804 265 q 808 260 807 261 q 811 256 810 258 q 814 253 813 254 q 877 365 854 303 q 900 496 900 428 l 900 496 m 736 178 q 732 183 735 181 q 728 189 729 186 q 723 194 725 192 q 718 200 721 197 q 704 213 713 208 q 686 217 696 217 q 623 187 639 217 q 606 117 607 157 q 674 142 642 126 q 736 178 707 157 l 736 178 z "},"r":{"ha":1482,"x_min":11,"x_max":1460,"o":"m 1460 193 q 1367 14 1454 83 q 1175 -54 1281 -56 q 1153 -54 1164 -54 q 1132 -51 1143 -54 q 943 34 1025 -36 q 794 186 861 104 q 770 215 782 200 q 747 244 758 231 q 632 385 688 321 q 538 454 576 449 q 528 456 533 456 q 518 456 524 456 q 515 456 517 456 q 510 457 513 456 q 506 457 508 457 q 501 457 504 457 l 501 563 q 526 563 514 563 q 549 563 538 563 q 572 563 560 563 q 596 563 583 563 q 599 563 597 563 q 603 563 601 563 q 697 610 654 567 q 739 707 740 654 q 673 835 739 797 q 528 875 607 874 q 523 875 525 875 q 519 875 521 875 q 500 875 514 875 q 468 875 486 875 l 468 106 l 594 106 l 594 0 l 11 0 l 11 106 l 118 106 l 118 875 l 46 875 l 46 981 q 122 981 47 981 q 285 981 196 981 q 433 981 364 981 q 519 981 501 981 q 744 913 646 981 q 844 707 843 846 q 801 569 846 631 q 688 479 757 507 q 687 479 688 479 q 685 478 686 479 q 751 406 718 446 q 818 326 785 367 q 824 319 821 322 q 831 311 828 315 q 860 274 844 293 q 892 235 875 254 q 1006 117 943 171 q 1147 51 1069 63 q 1162 49 1154 50 q 1176 49 1169 49 q 1247 63 1213 49 q 1314 106 1282 76 q 1343 147 1333 122 q 1354 197 1353 171 q 1354 201 1354 199 q 1354 207 1354 204 q 1346 258 1354 233 q 1322 300 1338 282 q 1281 333 1301 324 q 1242 342 1261 342 q 1234 342 1238 342 q 1228 340 1231 342 q 1195 322 1210 336 q 1181 290 1181 308 q 1181 283 1181 286 q 1183 276 1182 279 q 1185 270 1183 274 q 1190 263 1188 267 q 1199 255 1194 257 q 1210 254 1204 253 q 1215 255 1213 254 q 1219 256 1217 256 q 1230 260 1225 257 q 1239 265 1235 263 l 1304 183 q 1257 157 1282 167 q 1206 147 1232 147 q 1151 161 1178 149 q 1104 201 1124 174 q 1082 245 1089 224 q 1075 289 1075 267 q 1113 388 1075 343 q 1207 443 1150 432 q 1227 447 1218 446 q 1246 447 1236 447 q 1395 376 1335 447 q 1460 218 1456 304 q 1460 206 1460 213 q 1460 193 1460 200 l 1460 193 z "},"s":{"ha":1168,"x_min":7,"x_max":1147,"o":"m 1143 825 q 1097 726 1140 768 q 943 689 1054 683 l 949 783 q 966 783 956 783 q 988 786 976 783 q 1022 799 1006 789 q 1038 828 1038 808 q 1015 875 1038 860 q 964 893 992 890 q 958 893 961 893 q 951 893 954 893 q 872 851 893 893 q 842 760 850 810 q 839 731 840 744 q 836 703 838 717 q 835 697 836 700 q 835 690 835 693 q 826 612 831 651 q 815 532 821 572 q 815 528 815 531 q 814 522 814 525 q 803 438 808 479 q 793 356 797 396 q 629 75 771 160 q 308 4 488 -10 q 97 75 186 15 q 7 286 7 135 q 68 440 7 371 q 218 510 129 510 q 354 461 303 510 q 406 326 406 413 q 357 212 406 257 q 239 167 308 167 l 239 272 q 283 286 265 272 q 300 326 300 300 q 278 386 300 367 q 226 406 256 406 q 214 405 221 406 q 200 403 207 404 q 170 390 185 399 q 144 368 156 381 q 119 326 128 350 q 111 275 111 301 q 129 199 111 236 q 181 143 147 163 q 224 126 199 133 q 275 117 249 118 q 281 117 278 117 q 286 117 283 117 q 360 135 326 117 q 404 197 394 154 q 428 326 417 260 q 449 457 439 392 q 453 487 451 472 q 458 515 456 501 q 472 604 465 560 q 486 692 479 649 q 647 939 519 879 q 922 999 774 999 q 944 998 933 999 q 965 994 954 997 q 1091 941 1035 985 q 1143 825 1147 897 l 1143 825 z "},"t":{"ha":1431,"x_min":4,"x_max":1410,"o":"m 1410 964 q 1257 855 1371 874 q 999 846 1143 836 l 999 106 l 1140 106 l 1140 0 l 533 0 l 533 106 l 649 106 l 649 878 q 610 880 629 879 q 572 881 592 881 q 383 863 475 881 q 219 790 290 844 q 139 691 168 751 q 110 547 110 631 q 110 544 110 546 q 110 539 110 542 q 176 388 114 457 q 322 315 238 318 q 449 348 400 314 q 499 465 499 382 q 477 519 499 497 q 428 539 456 540 q 421 538 425 539 q 414 538 417 538 q 400 531 407 535 q 386 521 393 528 l 311 596 q 358 630 333 618 q 407 643 382 642 q 417 644 413 644 q 428 644 422 644 q 550 594 496 644 q 604 465 604 544 q 524 272 604 338 q 319 210 443 207 q 97 317 190 214 q 4 547 4 421 q 44 739 4 658 q 156 874 83 819 q 347 962 242 939 q 563 985 453 985 q 678 981 621 985 q 790 971 736 976 q 817 968 804 969 q 844 965 831 967 q 990 952 918 958 q 1124 946 1063 946 q 1249 958 1197 946 q 1314 1006 1300 971 l 1410 964 l 1410 964 z "},"u":{"ha":1038,"x_min":0,"x_max":1014,"o":"m 1014 -15 q 883 28 940 -14 q 803 138 826 71 q 665 29 747 69 q 488 -11 582 -11 q 329 21 403 -11 q 199 108 256 53 q 111 238 143 164 q 79 397 79 313 l 79 875 l 0 875 l 0 981 l 507 981 l 507 875 l 424 875 l 424 100 q 455 95 439 97 q 488 93 471 93 q 703 182 614 93 q 792 397 792 271 l 792 410 l 792 875 l 697 875 l 697 981 l 979 981 l 979 875 l 897 875 l 897 397 l 897 207 q 932 125 897 160 q 1014 90 967 90 l 1014 -15 l 1014 -15 z "},"v":{"ha":1094,"x_min":3,"x_max":1072,"o":"m 979 957 q 1048 874 1024 925 q 1072 758 1072 822 q 1047 626 1072 697 q 965 479 1022 556 l 603 -7 q 480 203 542 97 q 357 417 418 310 q 353 426 356 421 q 347 435 350 431 q 219 656 283 546 q 92 875 156 767 l 3 875 l 3 981 l 547 981 l 547 875 l 465 875 l 743 357 q 777 403 760 381 q 813 450 794 426 q 847 497 829 474 q 882 543 864 519 q 947 659 926 604 q 967 758 967 714 q 953 825 967 796 q 915 872 939 854 q 892 884 904 881 q 868 888 881 888 q 821 872 842 888 q 800 832 800 856 q 801 824 800 828 q 803 817 801 821 q 818 795 807 806 q 847 775 829 785 l 797 682 q 723 747 751 706 q 696 835 694 788 q 697 851 696 843 q 700 869 699 860 q 706 886 703 878 q 713 903 708 894 q 780 970 738 947 q 869 993 822 993 q 927 984 899 993 q 979 957 956 975 l 979 957 z "},"w":{"ha":1489,"x_min":3,"x_max":1463,"o":"m 1363 500 q 1201 254 1282 378 q 1038 7 1119 131 l 772 526 l 522 -4 l 93 875 l 3 875 l 3 981 l 546 981 l 546 875 l 464 875 l 636 485 l 868 976 l 1167 394 q 1194 435 1181 415 q 1221 476 1207 456 q 1247 517 1233 497 q 1274 558 1260 538 q 1285 576 1279 567 q 1299 597 1292 586 q 1326 654 1313 624 q 1349 717 1340 685 q 1355 746 1353 731 q 1357 775 1357 761 q 1344 834 1357 807 q 1301 879 1332 861 q 1284 887 1293 885 q 1265 889 1275 889 q 1217 873 1239 889 q 1196 833 1196 857 q 1197 824 1196 829 q 1200 814 1199 818 q 1215 794 1206 804 q 1242 775 1225 785 l 1192 682 q 1117 747 1146 706 q 1090 835 1089 788 q 1092 851 1090 843 q 1094 869 1093 860 q 1100 886 1097 878 q 1107 903 1103 894 q 1175 971 1131 947 q 1267 993 1219 994 q 1313 987 1290 993 q 1357 968 1336 981 q 1439 883 1415 932 q 1463 778 1463 833 q 1460 743 1463 761 q 1454 708 1458 725 q 1417 598 1443 651 q 1363 500 1392 544 l 1363 500 z "},"x":{"ha":1489,"x_min":15,"x_max":1467,"o":"m 1463 886 q 1466 865 1465 876 q 1467 843 1467 854 q 1467 835 1467 839 q 1467 829 1467 832 q 1401 670 1461 742 q 1244 606 1342 599 q 1136 656 1181 611 q 1092 760 1092 700 q 1095 783 1093 771 q 1101 807 1097 794 q 1106 819 1103 813 q 1111 831 1108 825 q 1160 883 1131 867 q 1225 900 1190 900 q 1242 899 1233 900 q 1257 896 1250 899 q 1282 888 1269 893 q 1306 876 1294 883 l 1253 786 q 1240 792 1247 789 q 1225 794 1232 794 q 1213 792 1219 794 q 1204 782 1207 789 q 1199 770 1201 776 q 1197 758 1197 764 q 1215 726 1199 739 q 1253 711 1232 714 q 1325 742 1297 707 q 1360 821 1353 778 q 1360 833 1360 826 q 1361 844 1361 839 q 1361 850 1361 847 q 1360 857 1361 853 q 1359 863 1360 860 q 1358 868 1358 865 q 1299 959 1347 926 q 1194 993 1250 992 q 1190 993 1192 993 q 1185 993 1188 993 q 1172 992 1179 993 q 1160 992 1165 992 q 1147 989 1153 990 q 1133 986 1140 988 q 1007 907 1061 965 q 911 782 953 849 q 881 733 896 757 q 854 688 867 710 q 802 602 828 644 q 749 524 776 560 l 1044 104 l 1138 104 l 1138 -1 l 593 -1 l 593 104 l 671 104 l 538 293 q 531 276 535 285 q 522 260 526 268 q 441 127 488 183 q 342 38 394 71 q 271 5 307 15 q 199 -6 235 -6 q 151 0 175 -6 q 104 15 128 6 q 38 78 60 36 q 15 165 15 119 q 16 176 15 171 q 17 189 17 182 q 25 223 19 206 q 39 256 31 240 q 97 315 61 296 q 174 335 133 335 q 190 334 182 335 q 207 331 199 333 q 242 321 225 328 q 274 304 258 314 l 217 215 q 194 226 206 222 q 172 231 183 231 q 169 231 171 231 q 168 231 168 231 q 165 229 167 229 q 163 229 164 229 q 131 207 142 226 q 121 164 121 188 q 128 132 121 147 q 149 110 135 117 q 165 104 157 107 q 182 100 174 101 q 190 99 186 99 q 199 99 194 99 q 242 106 221 99 q 286 126 264 113 q 363 197 326 153 q 426 303 400 242 q 437 325 432 314 q 447 349 442 336 q 458 371 453 360 q 467 393 463 382 l 129 871 l 32 871 l 32 976 l 550 976 l 550 871 l 503 871 l 685 614 q 724 676 704 643 q 764 742 743 708 q 785 778 775 760 q 807 814 796 796 q 932 980 863 901 q 1106 1088 1001 1058 q 1146 1097 1125 1094 q 1188 1099 1167 1099 q 1363 1042 1282 1099 q 1463 886 1444 985 l 1463 886 z "},"y":{"ha":1700,"x_min":3,"x_max":1697,"o":"m 1694 708 q 1697 697 1696 703 q 1697 685 1697 690 q 1697 673 1697 679 q 1697 661 1697 667 q 1615 441 1697 536 q 1422 346 1533 346 q 1342 361 1383 346 q 1261 408 1301 376 q 1210 473 1226 436 q 1194 549 1194 510 q 1233 660 1194 610 q 1343 717 1272 710 l 1354 613 q 1313 591 1328 610 q 1299 549 1299 572 q 1299 540 1299 544 q 1301 533 1300 536 q 1310 509 1304 521 q 1328 489 1317 497 q 1377 460 1353 469 q 1425 450 1401 450 q 1543 517 1494 451 q 1593 660 1592 582 q 1593 662 1593 661 q 1593 664 1593 663 q 1592 678 1593 671 q 1590 693 1592 686 q 1494 856 1576 793 q 1314 918 1411 919 q 1283 917 1299 918 q 1251 911 1267 915 q 1054 798 1140 885 q 899 614 968 711 q 851 544 874 579 q 808 478 829 510 q 806 473 807 475 q 803 468 804 471 q 799 463 800 465 q 796 458 797 461 l 796 106 l 881 106 l 881 0 l 363 0 l 363 106 l 444 106 l 444 450 l 96 881 l 3 881 l 3 986 l 547 986 l 547 881 l 482 881 l 731 554 q 744 574 738 564 q 757 594 750 585 q 961 854 850 732 q 1226 1014 1072 976 q 1270 1022 1249 1019 q 1314 1024 1292 1024 q 1563 936 1450 1024 q 1694 708 1675 849 l 1694 708 z "},"z":{"ha":1085,"x_min":1,"x_max":1063,"o":"m 1060 282 q 967 62 1063 126 q 729 -3 871 -3 q 550 -3 642 -3 q 365 -3 458 -3 q 181 -3 272 -3 q 1 -3 89 -3 l 588 868 q 528 868 560 868 q 464 868 496 868 q 399 868 431 868 q 339 868 367 868 q 231 860 275 868 q 158 832 186 851 q 125 789 136 817 q 113 731 114 761 q 113 727 113 729 q 113 724 113 725 q 120 676 113 699 q 143 639 128 654 q 171 622 154 629 q 206 613 188 614 q 209 613 207 613 q 214 613 211 613 q 242 618 229 613 q 265 636 256 624 q 276 656 272 644 q 279 678 279 667 q 275 701 279 690 q 261 719 271 713 l 329 800 q 367 754 353 781 q 382 696 381 728 q 334 557 389 607 q 207 507 279 507 q 197 507 201 507 q 186 508 192 507 q 126 525 156 511 q 71 563 97 539 q 23 638 39 594 q 7 726 7 681 q 7 731 7 729 q 7 735 7 733 q 31 838 8 789 q 96 917 54 886 q 199 960 139 947 q 339 974 258 974 q 511 974 422 974 q 689 974 600 974 q 874 974 782 974 q 1054 974 967 974 l 469 101 q 532 101 499 101 q 600 101 565 101 q 667 101 633 101 q 729 101 700 101 q 836 113 792 101 q 907 147 881 125 q 942 194 929 165 q 956 256 954 224 q 956 259 956 257 q 956 264 956 261 q 933 341 956 307 q 861 375 910 375 q 853 375 857 375 q 844 374 849 375 q 803 351 817 369 q 790 308 790 333 q 790 304 790 307 q 790 300 790 301 q 791 295 790 297 q 792 290 792 293 l 688 274 q 685 294 686 285 q 685 311 685 303 q 739 436 685 394 q 861 478 793 478 q 865 478 863 478 q 869 478 867 478 q 999 426 940 475 q 1060 282 1058 378 l 1060 282 z "},"{":{"ha":694,"x_min":0,"x_max":0,"o":""},"|":{"ha":694,"x_min":0,"x_max":0,"o":""},"}":{"ha":694,"x_min":0,"x_max":0,"o":""},"~":{"ha":694,"x_min":0,"x_max":0,"o":""},"Ä":{"ha":1194,"x_min":15,"x_max":1167,"o":"m 1167 0 l 642 0 l 642 106 l 738 106 l 660 268 q 610 262 633 264 q 567 260 588 260 q 520 263 542 260 q 479 269 499 265 q 430 284 453 275 q 386 303 407 293 l 290 106 l 361 106 l 361 0 l 50 0 l 50 106 l 172 106 l 293 353 q 267 364 281 358 q 238 374 253 369 q 215 378 226 376 q 192 381 203 381 q 153 372 171 381 q 125 344 136 364 q 123 338 124 342 q 122 329 122 335 q 122 324 122 326 q 124 317 122 321 q 127 306 125 311 q 131 296 129 300 l 42 239 q 24 275 31 256 q 15 315 18 294 q 15 323 15 319 q 15 329 15 326 q 19 365 15 347 q 32 396 24 382 q 96 462 57 440 q 185 485 135 483 q 259 476 221 486 q 339 447 297 467 l 624 1049 l 1099 106 l 1167 106 l 1167 0 l 1167 0 m 611 368 l 514 567 l 432 397 q 466 383 449 389 q 501 372 483 376 q 533 367 517 369 q 567 365 549 365 q 589 366 578 365 q 611 368 600 367 l 611 368 m 617 1086 q 599 1043 617 1061 q 556 1025 581 1025 q 513 1043 531 1025 q 494 1086 494 1061 q 513 1128 494 1111 q 556 1146 531 1146 q 599 1128 581 1146 q 617 1086 617 1111 l 617 1086 m 761 1086 q 744 1043 761 1061 q 701 1025 726 1025 q 658 1043 676 1025 q 640 1086 640 1061 q 658 1128 640 1111 q 701 1146 676 1146 q 744 1128 726 1146 q 761 1086 761 1111 l 761 1086 z "},"Å":{"ha":1194,"x_min":15,"x_max":1167,"o":"m 1167 0 l 642 0 l 642 106 l 738 106 l 660 268 q 610 262 633 264 q 567 260 588 260 q 520 263 542 260 q 479 269 499 265 q 430 284 453 275 q 386 303 407 293 l 290 106 l 361 106 l 361 0 l 50 0 l 50 106 l 172 106 l 293 353 q 267 364 281 358 q 238 374 253 369 q 215 378 226 376 q 192 381 203 381 q 153 372 171 381 q 125 344 136 364 q 123 338 124 342 q 122 329 122 335 q 122 324 122 326 q 124 317 122 321 q 127 306 125 311 q 131 296 129 300 l 42 239 q 24 275 31 256 q 15 315 18 294 q 15 323 15 319 q 15 329 15 326 q 19 365 15 347 q 32 396 24 382 q 96 462 57 440 q 185 485 135 483 q 259 476 221 486 q 339 447 297 467 l 624 1049 l 1099 106 l 1167 106 l 1167 0 l 1167 0 m 611 368 l 514 567 l 432 397 q 466 383 449 389 q 501 372 483 376 q 533 367 517 369 q 567 365 549 365 q 589 366 578 365 q 611 368 600 367 l 611 368 m 743 1111 q 734 1066 743 1088 q 708 1029 725 1044 l 710 1029 q 672 1005 693 1014 q 626 996 651 996 q 545 1030 579 996 q 511 1111 511 1064 q 520 1156 511 1135 q 544 1193 529 1178 q 583 1218 561 1208 q 626 1228 604 1228 q 709 1194 675 1228 q 743 1111 743 1160 l 743 1111 m 672 1111 q 659 1144 672 1131 q 626 1157 646 1157 q 609 1154 617 1157 q 594 1144 601 1151 q 585 1130 589 1139 q 582 1111 582 1121 q 595 1079 582 1093 q 626 1065 608 1065 q 646 1069 638 1065 q 660 1079 654 1074 q 669 1094 667 1086 q 672 1111 672 1101 l 672 1111 z "},"Ç":{"ha":946,"x_min":1,"x_max":939,"o":"m 596 -90 q 597 -94 596 -92 q 597 -100 597 -97 q 599 -106 599 -103 q 599 -111 599 -108 q 599 -119 599 -115 q 597 -125 599 -122 q 588 -154 594 -140 q 569 -179 581 -168 q 522 -211 547 -201 q 469 -221 497 -221 q 466 -221 468 -221 q 461 -221 464 -221 q 458 -219 460 -219 q 453 -219 456 -219 q 392 -205 424 -217 q 325 -175 360 -193 l 364 -104 q 416 -127 392 -118 q 460 -137 440 -136 q 468 -139 464 -139 q 475 -139 472 -139 q 494 -135 486 -139 q 510 -125 503 -132 q 514 -120 513 -124 q 515 -114 515 -117 q 513 -106 515 -110 q 506 -100 511 -103 q 502 -99 504 -99 q 497 -99 500 -99 q 485 -101 492 -99 q 468 -110 478 -104 l 406 -67 l 432 31 l 517 29 l 504 -17 q 563 -38 536 -18 q 596 -89 589 -58 l 596 -90 m 939 238 q 747 59 867 119 q 499 -1 628 -1 q 490 -1 494 -1 q 482 -1 486 -1 q 304 35 392 0 q 147 139 217 71 q 38 303 75 211 q 1 493 1 396 q 39 684 1 592 q 150 849 76 776 q 312 954 219 915 q 511 993 404 993 q 536 992 524 993 q 561 990 549 992 q 785 903 683 978 q 885 692 886 829 q 816 526 883 596 q 651 456 749 456 q 517 501 575 456 q 458 626 458 546 q 499 715 458 678 q 589 753 540 751 q 591 753 590 753 q 593 753 592 753 l 593 647 q 587 647 590 647 q 581 643 583 646 q 569 636 574 640 q 564 626 564 632 q 590 577 564 592 q 647 561 617 563 q 649 561 649 561 q 651 561 650 561 q 742 601 706 561 q 779 692 778 640 q 718 823 781 778 q 581 882 656 868 q 545 886 563 885 q 511 888 528 888 q 452 883 481 888 q 396 872 424 879 l 396 115 q 450 106 422 110 q 506 103 478 103 q 701 153 608 103 q 849 292 794 203 l 939 238 l 939 238 z "},"É":{"ha":989,"x_min":13,"x_max":982,"o":"m 982 261 q 981 244 982 253 q 979 225 981 235 q 950 144 972 183 q 890 72 928 104 q 801 20 853 40 q 686 0 750 0 l 14 0 l 14 106 q 35 106 25 106 q 57 106 46 106 q 78 106 68 106 q 100 106 89 106 l 100 872 l 13 872 l 13 978 l 683 978 l 808 767 l 718 713 l 624 872 l 450 872 l 450 628 l 517 628 l 517 707 l 622 707 l 622 444 l 517 444 l 517 522 l 450 522 l 450 106 q 509 106 479 106 q 568 106 539 106 q 627 106 597 106 q 686 106 657 106 q 764 118 731 106 q 822 151 797 131 q 854 188 842 168 q 872 229 867 208 q 875 245 874 238 q 876 261 876 253 q 876 276 876 268 q 874 292 875 285 q 843 360 867 329 q 778 390 819 390 q 767 390 772 390 q 756 388 761 389 q 727 376 740 385 q 714 349 714 367 q 720 333 714 339 q 736 328 726 328 l 736 222 q 643 262 676 222 q 610 351 610 301 q 610 359 610 356 q 611 365 610 363 q 626 414 614 390 q 661 457 639 438 q 711 485 682 475 q 776 496 740 494 q 928 424 875 497 q 982 261 981 351 l 982 261 m 638 1140 l 336 999 l 297 1071 l 506 1196 l 638 1140 l 638 1140 z "},"Ñ":{"ha":1185,"x_min":3,"x_max":1157,"o":"m 1157 875 l 1058 875 l 1058 0 l 896 0 l 438 617 l 438 106 l 546 106 l 546 0 l 3 0 l 3 106 l 88 106 l 88 872 l 3 872 l 3 978 l 300 978 l 736 392 l 736 875 l 638 875 l 638 979 l 1157 979 l 1157 875 l 1157 875 m 746 1051 l 678 1004 q 649 1029 667 1021 q 613 1038 632 1038 q 590 1034 601 1038 q 568 1024 579 1031 q 533 1006 551 1013 q 494 997 514 1000 q 484 997 489 997 q 475 997 479 997 q 403 1014 438 997 q 344 1064 368 1031 l 413 1111 q 442 1086 424 1094 q 478 1078 460 1078 q 501 1081 489 1078 q 522 1092 513 1085 q 567 1112 543 1106 q 614 1118 590 1118 q 687 1101 651 1118 q 746 1051 722 1083 l 746 1051 z "},"Ö":{"ha":983,"x_min":0,"x_max":976,"o":"m 976 489 q 833 144 976 288 q 488 0 690 0 q 143 144 286 0 q 0 489 0 288 q 143 835 0 692 q 488 978 286 978 q 833 835 690 978 q 976 489 976 692 l 976 489 m 871 489 q 759 759 871 646 q 488 872 647 872 q 442 869 465 872 q 397 861 419 867 l 397 117 q 442 108 419 111 q 488 106 465 106 q 758 218 646 106 q 871 489 871 331 l 871 489 m 479 1065 q 461 1022 479 1040 q 418 1004 443 1004 q 375 1022 393 1004 q 357 1065 357 1040 q 375 1108 357 1090 q 418 1125 393 1125 q 461 1108 443 1125 q 479 1065 479 1090 l 479 1065 m 624 1065 q 606 1022 624 1040 q 564 1004 589 1004 q 521 1022 539 1004 q 503 1065 503 1040 q 521 1108 503 1090 q 564 1125 539 1125 q 606 1108 589 1125 q 624 1065 624 1090 l 624 1065 z "},"Ü":{"ha":1038,"x_min":0,"x_max":1014,"o":"m 1014 -15 q 883 28 940 -14 q 803 138 826 71 q 665 29 747 69 q 488 -11 582 -11 q 329 21 403 -11 q 199 108 256 53 q 111 238 143 164 q 79 397 79 313 l 79 875 l 0 875 l 0 981 l 507 981 l 507 875 l 424 875 l 424 100 q 455 95 439 97 q 488 93 471 93 q 703 182 614 93 q 792 397 792 271 l 792 410 l 792 875 l 697 875 l 697 981 l 979 981 l 979 875 l 897 875 l 897 397 l 897 207 q 932 125 897 160 q 1014 90 967 90 l 1014 -15 l 1014 -15 m 517 1054 q 499 1011 517 1029 q 456 993 481 993 q 413 1011 431 993 q 394 1054 394 1029 q 413 1097 394 1079 q 456 1114 431 1114 q 499 1097 481 1114 q 517 1054 517 1079 l 517 1054 m 661 1054 q 644 1011 661 1029 q 601 993 626 993 q 558 1011 576 993 q 540 1054 540 1029 q 558 1097 540 1079 q 601 1114 576 1114 q 644 1097 626 1114 q 661 1054 661 1079 l 661 1054 z "},"á":{"ha":694,"x_min":0,"x_max":0,"o":""},"à":{"ha":694,"x_min":0,"x_max":0,"o":""},"â":{"ha":694,"x_min":0,"x_max":0,"o":""},"ä":{"ha":694,"x_min":0,"x_max":0,"o":""},"ã":{"ha":694,"x_min":0,"x_max":0,"o":""},"å":{"ha":694,"x_min":0,"x_max":0,"o":""},"ç":{"ha":694,"x_min":0,"x_max":0,"o":""},"é":{"ha":694,"x_min":0,"x_max":0,"o":""},"è":{"ha":694,"x_min":0,"x_max":0,"o":""},"ê":{"ha":694,"x_min":0,"x_max":0,"o":""},"ë":{"ha":694,"x_min":0,"x_max":0,"o":""},"í":{"ha":694,"x_min":0,"x_max":0,"o":""},"ì":{"ha":694,"x_min":0,"x_max":0,"o":""},"î":{"ha":694,"x_min":0,"x_max":0,"o":""},"ï":{"ha":694,"x_min":0,"x_max":0,"o":""},"ñ":{"ha":694,"x_min":0,"x_max":0,"o":""},"ó":{"ha":694,"x_min":0,"x_max":0,"o":""},"ò":{"ha":694,"x_min":0,"x_max":0,"o":""},"ô":{"ha":694,"x_min":0,"x_max":0,"o":""},"ö":{"ha":694,"x_min":0,"x_max":0,"o":""},"õ":{"ha":694,"x_min":0,"x_max":0,"o":""},"ú":{"ha":694,"x_min":0,"x_max":0,"o":""},"ù":{"ha":694,"x_min":0,"x_max":0,"o":""},"û":{"ha":694,"x_min":0,"x_max":0,"o":""},"ü":{"ha":694,"x_min":0,"x_max":0,"o":""},"†":{"ha":694,"x_min":0,"x_max":0,"o":""},"¢":{"ha":750,"x_min":33,"x_max":717,"o":"m 717 279 q 581 151 665 196 q 404 103 496 106 q 401 103 403 103 q 396 103 399 103 q 358 105 376 103 q 319 111 339 107 l 239 -93 q 227 -108 235 -103 q 213 -117 219 -114 q 208 -117 210 -117 q 206 -117 207 -117 q 181 -107 192 -117 q 171 -82 171 -97 q 172 -75 171 -79 q 174 -67 172 -71 l 251 132 q 193 164 221 146 q 140 207 165 182 q 60 327 88 260 q 33 465 33 394 q 62 604 35 536 q 143 724 89 672 q 260 801 192 772 q 404 829 328 829 q 423 828 414 829 q 442 826 432 828 q 480 821 461 825 q 517 811 499 817 l 611 1053 q 626 1072 617 1067 q 646 1078 636 1078 q 669 1068 658 1078 q 679 1043 679 1058 q 679 1036 679 1040 q 676 1028 679 1032 l 579 782 q 652 710 624 754 q 679 606 681 667 q 628 481 678 533 q 504 429 578 429 l 504 524 q 562 548 539 524 q 586 607 585 572 q 575 656 586 635 q 544 692 564 678 l 354 201 q 377 199 365 200 q 401 197 389 197 q 536 232 472 197 q 636 328 600 267 l 717 279 l 717 279 m 482 724 q 463 728 472 726 q 443 732 453 731 q 424 734 433 733 q 404 735 414 735 q 392 735 399 735 q 381 733 386 735 q 356 731 368 733 q 333 726 344 729 l 333 342 l 482 724 l 482 724 z "},"£":{"ha":981,"x_min":44,"x_max":936,"o":"m 933 149 q 837 2 915 44 q 664 -40 758 -40 q 624 -38 644 -40 q 585 -33 604 -36 q 505 -15 544 -26 q 425 7 465 -4 q 417 9 421 8 q 410 11 414 10 q 312 40 361 26 q 211 61 263 54 q 206 62 208 61 q 199 63 203 63 q 187 65 193 64 q 174 65 181 65 q 170 65 172 65 q 167 65 168 65 q 141 63 153 65 q 122 53 129 60 l 44 125 q 73 147 58 139 q 101 158 88 154 q 120 163 111 161 q 139 167 129 164 q 199 189 174 172 q 224 276 224 206 q 224 366 224 321 q 224 456 224 411 q 176 456 200 456 q 128 456 151 456 q 100 467 110 456 q 90 492 90 478 q 100 515 90 504 q 128 525 110 525 q 176 525 151 525 q 224 525 200 525 q 224 581 224 553 q 224 636 224 610 q 345 906 224 819 q 635 993 467 993 q 838 931 746 993 q 929 746 931 869 q 877 609 928 668 q 744 550 826 550 q 632 589 681 550 q 583 696 583 628 q 620 773 583 740 q 700 806 657 806 l 700 700 q 692 697 694 700 q 689 692 689 694 q 691 685 689 689 q 696 678 693 682 q 716 662 703 669 q 746 654 729 654 q 772 660 758 654 q 799 681 785 667 q 817 712 811 694 q 824 747 824 729 q 823 755 824 751 q 822 763 822 758 q 807 808 818 786 q 778 844 796 831 q 729 872 757 861 q 669 886 701 882 q 573 823 597 885 q 546 686 549 761 q 547 633 546 660 q 549 585 547 607 q 549 552 549 567 q 550 525 550 538 q 608 525 579 525 q 664 525 636 525 q 692 514 683 525 q 701 489 701 503 q 692 466 701 476 q 664 456 683 456 q 608 456 636 456 q 550 456 579 456 q 550 429 550 442 q 551 404 550 417 q 540 247 553 318 q 442 113 528 175 q 469 104 454 108 q 500 94 483 100 q 555 81 526 88 q 614 69 583 74 q 647 65 631 67 q 679 64 663 64 q 777 86 735 64 q 829 167 819 108 q 831 175 831 171 q 831 182 831 179 q 817 223 831 207 q 786 244 803 239 q 775 248 781 247 q 765 249 769 249 q 749 244 756 249 q 740 233 743 240 l 638 253 q 685 329 647 306 q 765 353 722 353 q 776 352 771 353 q 786 351 782 351 q 856 328 822 346 q 908 281 889 311 q 929 238 922 263 q 936 185 936 214 q 935 167 936 176 q 933 149 935 158 l 933 149 z "},"§":{"ha":694,"x_min":0,"x_max":0,"o":""},"¶":{"ha":694,"x_min":0,"x_max":0,"o":""},"ß":{"ha":1107,"x_min":50,"x_max":1057,"o":"m 1057 263 q 973 60 1057 126 q 758 -7 889 -7 q 747 -7 753 -7 q 736 -6 742 -7 q 605 44 665 0 q 544 169 544 89 q 591 276 544 233 q 694 319 638 319 q 703 319 699 319 q 713 318 708 319 q 750 307 732 315 q 783 285 768 299 q 813 245 803 268 q 824 194 824 222 l 718 194 q 712 208 718 204 q 694 213 706 213 q 689 212 692 213 q 683 211 686 211 q 660 197 671 208 q 650 169 650 186 q 673 124 650 140 q 722 101 696 107 q 741 98 732 99 q 758 97 750 97 q 898 133 844 97 q 951 263 951 169 q 894 376 951 338 q 768 431 838 415 q 710 439 739 436 q 658 442 682 442 l 658 547 q 730 581 699 549 q 774 653 761 614 q 778 672 776 663 q 779 689 779 681 q 705 851 782 813 q 521 888 628 890 l 521 0 l 60 0 l 60 106 l 136 106 q 136 188 136 147 q 136 271 136 229 q 136 353 136 313 q 136 436 136 394 l 50 436 l 50 542 l 136 542 q 136 561 136 551 q 136 581 136 571 q 136 600 136 590 q 136 619 136 610 q 156 774 136 706 q 224 892 175 842 q 349 966 271 940 q 514 994 428 992 q 522 994 518 994 q 531 994 526 994 q 678 974 608 994 q 794 914 749 954 q 860 823 838 876 q 885 713 882 769 q 885 707 885 710 q 885 701 885 704 q 870 608 885 654 q 824 526 856 563 q 986 434 915 500 q 1057 263 1057 368 l 1057 263 z "},"®":{"ha":694,"x_min":0,"x_max":0,"o":""},"©":{"ha":694,"x_min":0,"x_max":0,"o":""},"™":{"ha":694,"x_min":0,"x_max":0,"o":""},"´":{"ha":440,"x_min":51,"x_max":392,"o":"m 392 1040 l 90 899 l 51 971 l 260 1096 l 392 1040 l 392 1040 z "},"¨":{"ha":313,"x_min":24,"x_max":290,"o":"m 146 1025 q 128 982 146 1000 q 85 964 110 964 q 42 982 60 964 q 24 1025 24 1000 q 42 1067 24 1050 q 85 1085 60 1085 q 128 1067 110 1085 q 146 1025 146 1050 l 146 1025 m 290 1025 q 273 982 290 1000 q 231 964 256 964 q 188 982 206 964 q 169 1025 169 1000 q 188 1067 169 1050 q 231 1085 206 1085 q 273 1067 256 1085 q 290 1025 290 1050 l 290 1025 z "},"≠":{"ha":694,"x_min":0,"x_max":0,"o":""},"Æ":{"ha":1774,"x_min":3,"x_max":1764,"o":"m 1764 261 q 1763 244 1764 253 q 1761 225 1763 235 q 1733 144 1756 183 q 1674 72 1710 104 q 1585 20 1636 40 q 1469 0 1533 0 l 768 0 l 768 106 l 883 106 l 883 161 q 775 303 835 235 q 650 429 715 371 q 627 392 639 411 q 604 354 615 372 q 583 319 593 336 q 564 286 574 303 q 506 193 535 239 q 443 106 476 147 l 563 106 l 563 0 l 201 0 l 201 106 l 303 106 q 365 178 336 139 q 421 257 394 217 q 458 318 440 288 q 493 376 476 349 q 529 434 511 404 q 567 494 547 464 q 554 503 561 499 q 540 510 547 507 q 455 551 503 532 q 357 579 407 569 q 318 585 338 583 q 281 588 299 588 q 190 570 232 588 q 125 510 149 553 q 117 493 121 501 q 111 476 113 485 q 107 458 108 467 q 106 442 106 450 q 126 379 106 407 q 186 340 147 351 l 157 239 q 72 285 110 254 q 15 364 33 315 q 6 401 10 382 q 3 439 3 419 q 3 455 3 447 q 4 471 4 463 q 15 517 8 494 q 33 561 22 540 q 38 569 35 565 q 42 575 40 572 q 137 656 72 619 q 297 692 201 692 q 431 672 358 692 q 586 606 503 653 q 605 594 596 600 q 624 582 614 589 q 752 747 683 668 q 904 892 821 825 q 947 922 926 910 q 988 944 967 935 q 1087 972 1035 967 q 1210 978 1139 978 l 1465 978 l 1590 767 l 1500 713 l 1406 872 l 1233 872 l 1233 628 l 1299 628 l 1299 707 l 1404 707 l 1404 444 l 1299 444 l 1299 522 l 1233 522 l 1233 106 l 1469 106 q 1547 118 1513 106 q 1604 151 1581 131 q 1636 188 1624 168 q 1654 229 1649 208 q 1658 245 1657 238 q 1658 261 1658 253 q 1658 276 1658 268 q 1656 292 1657 285 q 1626 360 1649 329 q 1560 390 1603 390 q 1550 390 1556 390 q 1539 389 1544 389 q 1510 376 1524 385 q 1497 349 1497 367 q 1503 333 1497 339 q 1519 328 1510 328 l 1519 222 q 1426 263 1460 222 q 1392 353 1392 303 q 1392 359 1392 356 q 1392 365 1392 363 q 1407 415 1394 390 q 1443 457 1419 439 q 1494 485 1465 475 q 1560 496 1524 496 q 1710 424 1657 497 q 1764 261 1763 351 l 1764 261 m 883 338 l 883 739 q 792 633 835 689 q 708 518 749 576 q 801 432 757 478 q 883 338 844 386 l 883 338 z "},"Ø":{"ha":1075,"x_min":49,"x_max":1026,"o":"m 1026 489 q 883 144 1026 288 q 538 0 740 0 q 373 28 451 0 q 232 108 294 57 l 147 24 l 74 99 l 157 183 q 77 324 106 246 q 49 489 49 403 q 192 835 49 692 q 538 978 336 978 q 702 949 624 978 q 844 869 781 921 l 928 954 l 1003 879 l 918 794 q 998 653 969 732 q 1026 489 1026 575 l 1026 489 m 921 489 q 900 613 921 554 q 843 719 879 672 l 447 324 l 447 117 q 492 108 469 111 q 538 106 515 106 q 808 218 696 106 q 921 489 921 331 l 921 489 m 769 794 q 662 851 721 831 q 538 872 603 872 q 492 869 515 872 q 447 861 469 867 l 447 472 l 769 794 l 769 794 z "},"∞":{"ha":694,"x_min":0,"x_max":0,"o":""},"±":{"ha":694,"x_min":0,"x_max":0,"o":""},"≤":{"ha":694,"x_min":0,"x_max":0,"o":""},"≥":{"ha":694,"x_min":0,"x_max":0,"o":""},"¥":{"ha":1200,"x_min":54,"x_max":1146,"o":"m 1135 863 q 1135 857 1135 860 q 1136 851 1136 854 q 1136 844 1136 847 q 1136 839 1136 842 q 1102 722 1136 778 q 1026 625 1068 667 q 998 597 1013 611 q 968 567 983 582 l 1108 567 q 1137 556 1128 567 q 1146 531 1146 544 q 1137 506 1146 517 q 1108 496 1128 496 l 897 496 q 874 473 886 485 q 850 450 863 461 l 1108 450 q 1137 439 1128 450 q 1146 414 1146 428 q 1137 390 1146 400 q 1108 379 1128 379 l 847 379 l 847 106 l 932 106 l 932 0 l 414 0 l 414 106 l 497 106 l 497 379 l 238 379 q 210 390 219 379 q 200 415 200 401 q 210 440 200 429 q 238 450 219 450 l 497 450 l 458 496 l 238 496 q 210 507 219 496 q 200 532 200 518 q 210 556 200 546 q 238 567 219 567 l 401 567 l 149 881 l 54 881 l 54 986 l 599 986 l 599 881 l 533 881 l 792 539 q 833 580 813 560 q 872 619 853 600 q 912 659 892 639 q 953 700 932 679 q 959 706 956 703 q 965 714 963 710 q 1000 758 983 733 q 1025 808 1017 782 q 1029 825 1028 817 q 1031 842 1031 833 q 1019 882 1031 863 q 978 915 1007 901 q 965 919 972 918 q 949 921 957 921 q 940 920 944 921 q 929 919 935 919 q 897 907 913 915 q 876 885 882 899 q 876 884 876 885 q 875 882 875 883 q 875 880 875 881 q 875 879 875 879 q 882 867 875 872 q 896 857 889 861 q 906 852 901 854 q 913 849 910 850 l 875 750 q 800 801 832 768 q 768 879 768 835 q 772 901 769 890 q 778 924 774 913 q 839 996 794 969 q 932 1026 883 1022 q 940 1026 936 1026 q 949 1026 944 1026 q 988 1022 968 1026 q 1024 1010 1007 1018 q 1099 951 1068 988 q 1135 863 1129 914 l 1135 863 z "},"µ":{"ha":694,"x_min":0,"x_max":0,"o":""},"∂":{"ha":694,"x_min":0,"x_max":0,"o":""},"Σ":{"ha":694,"x_min":0,"x_max":0,"o":""},"∏":{"ha":694,"x_min":0,"x_max":0,"o":""},"π":{"ha":694,"x_min":0,"x_max":0,"o":""},"∫":{"ha":694,"x_min":0,"x_max":0,"o":""},"ª":{"ha":476,"x_min":3,"x_max":463,"o":"m 463 568 l 253 568 l 253 610 l 290 610 l 260 675 q 240 673 250 674 q 222 672 231 672 q 203 674 213 672 q 188 676 194 675 q 168 682 178 679 q 150 689 158 685 l 113 610 l 140 610 l 140 568 l 15 568 l 15 610 l 65 610 l 113 710 q 103 714 108 713 q 93 718 97 715 q 82 720 88 719 q 72 721 76 721 q 57 717 64 719 q 46 706 50 714 q 44 703 44 704 q 44 700 44 703 q 45 694 44 697 q 47 690 46 692 q 48 688 47 689 q 49 686 49 688 l 13 664 q 5 682 7 672 q 3 701 3 692 q 4 715 3 708 q 8 726 6 721 q 35 753 19 744 q 69 763 50 761 q 100 758 85 763 q 132 747 115 754 l 246 988 l 435 610 l 463 610 l 463 568 l 463 568 m 240 715 l 201 794 l 168 726 q 176 724 172 725 q 182 721 179 722 q 188 719 185 719 q 196 717 192 718 q 209 715 203 715 q 222 714 215 714 q 231 714 226 714 q 240 715 235 714 l 240 715 z "},"º":{"ha":413,"x_min":8,"x_max":399,"o":"m 399 799 q 342 660 399 718 q 203 603 285 603 q 65 660 122 603 q 8 799 8 718 q 65 937 8 879 q 203 994 122 994 q 342 937 285 994 q 399 799 399 879 l 399 799 m 357 799 q 313 906 357 861 q 203 951 268 951 q 185 951 194 951 q 167 947 176 950 l 167 650 q 185 647 176 649 q 203 644 194 644 q 312 690 267 644 q 357 799 357 735 l 357 799 z "},"Ω":{"ha":694,"x_min":0,"x_max":0,"o":""},"æ":{"ha":694,"x_min":0,"x_max":0,"o":""},"ø":{"ha":694,"x_min":0,"x_max":0,"o":""},"¿":{"ha":764,"x_min":18,"x_max":714,"o":"m 713 -65 q 648 -203 714 -153 q 503 -271 582 -254 q 459 -278 481 -276 q 417 -281 438 -281 q 403 -281 410 -281 q 390 -281 397 -281 q 134 -199 250 -274 q 18 33 18 -125 q 124 256 18 176 q 361 346 231 335 l 361 394 l 467 394 l 467 243 q 428 243 447 243 q 390 242 410 243 l 390 -176 q 484 -169 439 -178 q 563 -136 529 -160 q 595 -104 583 -122 q 607 -65 607 -86 q 590 -31 607 -43 q 553 -15 574 -19 q 537 -12 544 -12 q 522 -11 529 -11 l 522 92 q 526 92 524 92 q 531 92 528 92 q 655 49 599 89 q 713 -64 711 10 l 713 -65 m 594 563 q 577 500 594 529 q 529 451 560 471 q 471 423 504 433 q 400 413 438 413 q 329 423 363 413 q 271 451 296 433 q 224 500 240 471 q 207 563 207 529 q 224 626 207 597 q 271 675 240 654 q 329 703 296 693 q 400 713 363 713 q 471 703 438 713 q 529 675 504 693 q 577 626 560 654 q 594 563 594 597 l 594 563 z "},"¡":{"ha":460,"x_min":19,"x_max":438,"o":"m 438 -107 q 385 -219 438 -174 q 268 -276 332 -264 q 248 -280 258 -279 q 228 -281 238 -281 q 207 -279 218 -281 q 186 -276 196 -278 q 72 -218 124 -264 q 19 -106 19 -172 q 36 -10 19 -47 q 78 60 53 26 q 84 69 81 64 q 90 78 88 74 q 97 86 93 82 q 103 96 100 90 q 150 181 129 131 q 171 321 171 232 q 171 348 171 335 q 171 374 171 361 l 286 374 q 286 348 286 361 q 286 321 286 335 q 308 178 286 229 q 356 92 329 128 q 360 84 357 88 q 365 78 363 81 q 372 69 368 74 q 379 60 375 64 q 420 -10 403 26 q 438 -106 438 -47 l 438 -107 m 422 554 q 376 456 422 493 q 274 408 329 419 q 250 406 261 407 q 228 404 239 404 q 205 406 217 404 q 181 410 193 407 q 81 457 126 421 q 35 554 35 493 q 81 652 35 615 q 181 700 126 689 q 205 703 193 701 q 228 704 217 704 q 250 703 239 704 q 274 700 261 701 q 376 653 329 689 q 422 554 422 617 l 422 554 z "},"¬":{"ha":694,"x_min":0,"x_max":0,"o":""},"√":{"ha":694,"x_min":0,"x_max":0,"o":""},"ƒ":{"ha":694,"x_min":0,"x_max":0,"o":""},"≈":{"ha":694,"x_min":0,"x_max":0,"o":""},"∆":{"ha":694,"x_min":0,"x_max":0,"o":""},"«":{"ha":536,"x_min":18,"x_max":528,"o":"m 319 339 l 247 263 l 18 485 l 247 707 l 319 632 l 169 485 l 319 339 l 319 339 m 528 339 l 456 263 l 226 485 l 456 707 l 528 632 l 378 485 l 528 339 l 528 339 z "},"»":{"ha":536,"x_min":14,"x_max":524,"o":"m 315 485 l 86 263 l 14 339 l 164 485 l 14 632 l 86 707 l 315 485 l 315 485 m 524 485 l 294 263 l 222 339 l 372 485 l 222 632 l 294 707 l 524 485 l 524 485 z "},"…":{"ha":694,"x_min":0,"x_max":0,"o":""},"À":{"ha":1194,"x_min":15,"x_max":1167,"o":"m 1167 0 l 642 0 l 642 106 l 738 106 l 660 268 q 610 262 633 264 q 567 260 588 260 q 520 263 542 260 q 479 269 499 265 q 430 284 453 275 q 386 303 407 293 l 290 106 l 361 106 l 361 0 l 50 0 l 50 106 l 172 106 l 293 353 q 267 364 281 358 q 238 374 253 369 q 215 378 226 376 q 192 381 203 381 q 153 372 171 381 q 125 344 136 364 q 123 338 124 342 q 122 329 122 335 q 122 324 122 326 q 124 317 122 321 q 127 306 125 311 q 131 296 129 300 l 42 239 q 24 275 31 256 q 15 315 18 294 q 15 323 15 319 q 15 329 15 326 q 19 365 15 347 q 32 396 24 382 q 96 462 57 440 q 185 485 135 483 q 259 476 221 486 q 339 447 297 467 l 624 1049 l 1099 106 l 1167 106 l 1167 0 l 1167 0 m 611 368 l 514 567 l 432 397 q 466 383 449 389 q 501 372 483 376 q 533 367 517 369 q 567 365 549 365 q 589 366 578 365 q 611 368 600 367 l 611 368 m 724 1133 l 685 1061 l 383 1203 l 515 1258 l 724 1133 l 724 1133 z "},"Ã":{"ha":1194,"x_min":15,"x_max":1167,"o":"m 1167 0 l 642 0 l 642 106 l 738 106 l 660 268 q 610 262 633 264 q 567 260 588 260 q 520 263 542 260 q 479 269 499 265 q 430 284 453 275 q 386 303 407 293 l 290 106 l 361 106 l 361 0 l 50 0 l 50 106 l 172 106 l 293 353 q 267 364 281 358 q 238 374 253 369 q 215 378 226 376 q 192 381 203 381 q 153 372 171 381 q 125 344 136 364 q 123 338 124 342 q 122 329 122 335 q 122 324 122 326 q 124 317 122 321 q 127 306 125 311 q 131 296 129 300 l 42 239 q 24 275 31 256 q 15 315 18 294 q 15 323 15 319 q 15 329 15 326 q 19 365 15 347 q 32 396 24 382 q 96 462 57 440 q 185 485 135 483 q 259 476 221 486 q 339 447 297 467 l 624 1049 l 1099 106 l 1167 106 l 1167 0 l 1167 0 m 611 368 l 514 567 l 432 397 q 466 383 449 389 q 501 372 483 376 q 533 367 517 369 q 567 365 549 365 q 589 366 578 365 q 611 368 600 367 l 611 368 m 825 1118 l 757 1071 q 728 1096 746 1088 q 692 1104 711 1104 q 669 1101 681 1104 q 647 1090 658 1097 q 612 1073 631 1079 q 574 1064 593 1067 q 563 1064 568 1064 q 554 1064 558 1064 q 482 1081 517 1064 q 424 1131 447 1097 l 492 1178 q 521 1153 503 1161 q 557 1144 539 1144 q 580 1148 568 1144 q 601 1158 592 1151 q 646 1178 622 1172 q 693 1185 669 1185 q 766 1167 731 1185 q 825 1118 801 1150 l 825 1118 z "},"Õ":{"ha":983,"x_min":0,"x_max":976,"o":"m 976 489 q 833 144 976 288 q 488 0 690 0 q 143 144 286 0 q 0 489 0 288 q 143 835 0 692 q 488 978 286 978 q 833 835 690 978 q 976 489 976 692 l 976 489 m 871 489 q 759 759 871 646 q 488 872 647 872 q 442 869 465 872 q 397 861 419 867 l 397 117 q 442 108 419 111 q 488 106 465 106 q 758 218 646 106 q 871 489 871 331 l 871 489 m 692 1050 l 624 1003 q 595 1028 613 1019 q 558 1036 578 1036 q 536 1033 547 1036 q 514 1022 525 1029 q 478 1005 497 1011 q 440 996 460 999 q 430 996 435 996 q 421 996 425 996 q 349 1013 383 996 q 290 1063 314 1029 l 358 1110 q 388 1085 369 1093 q 424 1076 406 1076 q 447 1080 435 1076 q 468 1090 458 1083 q 513 1110 489 1104 q 560 1117 536 1117 q 633 1099 597 1117 q 692 1050 668 1082 l 692 1050 z "},"Œ":{"ha":1489,"x_min":13,"x_max":1474,"o":"m 1472 261 q 1385 76 1474 147 q 1189 0 1296 4 q 1183 0 1186 0 q 1178 0 1181 0 l 504 0 q 157 144 301 0 q 13 489 13 288 q 157 835 13 692 q 503 978 301 978 l 1174 978 l 1299 767 l 1208 713 l 1114 872 l 940 872 l 940 628 l 1007 628 l 1007 707 l 1113 707 l 1113 444 l 1007 444 l 1007 522 l 940 522 l 940 106 q 1059 106 1000 106 q 1178 106 1118 106 q 1197 106 1188 106 q 1217 110 1207 107 q 1321 159 1274 119 q 1367 261 1368 199 q 1366 276 1367 268 q 1364 292 1365 285 q 1334 360 1357 329 q 1268 390 1311 390 q 1258 390 1264 390 q 1247 389 1253 389 q 1219 376 1232 385 q 1206 349 1206 367 q 1212 333 1206 339 q 1228 328 1218 328 l 1228 222 q 1134 263 1168 222 q 1100 353 1100 303 q 1100 359 1100 356 q 1100 365 1100 363 q 1115 415 1103 390 q 1151 457 1128 439 q 1203 485 1174 475 q 1268 496 1232 496 q 1418 424 1365 497 q 1472 261 1471 351 l 1472 261 m 590 106 l 590 872 l 503 872 q 480 872 492 872 q 457 869 468 871 q 433 866 444 868 q 410 861 421 864 l 410 117 q 457 108 433 111 q 504 106 481 106 q 548 106 526 106 q 590 106 569 106 l 590 106 z "},"œ":{"ha":694,"x_min":0,"x_max":0,"o":""},"—":{"ha":694,"x_min":0,"x_max":0,"o":""},"“":{"ha":378,"x_min":14,"x_max":382,"o":"m 215 1007 l 119 803 l 14 853 l 110 1057 l 215 1007 l 215 1007 m 382 1007 l 286 803 l 181 853 l 276 1057 l 382 1007 l 382 1007 z "},"”":{"ha":378,"x_min":14,"x_max":382,"o":"m 215 1007 l 119 803 l 14 853 l 110 1057 l 215 1007 l 215 1007 m 382 1007 l 286 803 l 181 853 l 276 1057 l 382 1007 l 382 1007 z "},"‘":{"ha":225,"x_min":14,"x_max":215,"o":"m 215 1007 l 119 803 l 14 853 l 110 1057 l 215 1007 l 215 1007 z "},"’":{"ha":225,"x_min":14,"x_max":215,"o":"m 215 1007 l 119 803 l 14 853 l 110 1057 l 215 1007 l 215 1007 z "},"÷":{"ha":694,"x_min":0,"x_max":0,"o":""},"◊":{"ha":694,"x_min":0,"x_max":0,"o":""},"ÿ":{"ha":694,"x_min":0,"x_max":0,"o":""},"Ÿ":{"ha":1192,"x_min":7,"x_max":1169,"o":"m 1169 821 l 1065 811 q 1065 816 1065 814 q 1064 819 1064 818 q 1044 851 1058 836 q 1013 869 1029 865 q 1004 871 1008 871 q 996 871 1000 871 q 988 870 992 871 q 978 869 983 869 q 938 851 958 864 q 903 824 918 838 q 894 815 899 819 q 886 807 890 811 q 826 714 851 768 q 786 603 800 660 q 777 553 781 578 q 774 504 774 528 q 774 404 774 454 q 774 306 774 354 q 774 272 774 289 q 774 239 774 256 q 774 172 774 206 q 774 106 774 139 l 906 106 l 906 0 l 315 0 l 315 106 l 425 106 q 425 217 425 161 q 425 329 425 274 q 425 441 425 385 q 425 553 425 497 q 425 584 425 568 q 424 617 425 600 q 392 802 419 718 q 288 885 365 886 q 167 841 222 883 q 114 726 113 799 q 138 653 114 686 q 206 621 163 621 q 210 621 208 621 q 215 621 213 621 q 256 633 238 622 q 274 669 274 644 q 273 672 274 671 q 271 674 272 672 q 268 676 269 675 q 264 678 267 676 q 259 680 261 679 q 256 681 257 681 l 256 786 q 340 752 301 786 q 378 669 378 718 q 326 556 378 597 q 206 515 275 515 q 63 578 117 515 q 8 725 10 640 q 106 924 7 857 q 322 993 204 992 q 324 993 324 993 q 326 993 325 993 q 563 925 458 993 q 722 742 667 857 q 734 767 728 754 q 749 794 740 781 q 853 920 789 863 q 996 978 917 978 q 1017 976 1007 978 q 1038 972 1028 975 q 1126 917 1089 961 q 1169 821 1164 874 l 1169 821 z "},"∕":{"ha":694,"x_min":0,"x_max":0,"o":""},"¤":{"ha":949,"x_min":43,"x_max":906,"o":"m 868 510 l 506 510 l 506 475 l 779 475 q 808 464 799 475 q 817 439 817 453 q 808 415 817 425 q 779 404 799 404 l 506 404 l 506 118 q 541 110 524 113 q 576 108 558 108 q 667 124 622 108 q 750 169 711 139 l 750 242 l 803 242 l 856 242 l 856 4 l 807 4 l 803 4 l 750 4 l 750 46 q 664 14 708 25 q 575 4 619 3 q 567 4 571 4 q 560 4 564 4 q 406 44 481 8 q 271 150 331 81 q 195 269 224 204 q 156 404 167 335 l 81 404 q 53 415 63 404 q 43 440 43 426 q 53 465 43 454 q 81 475 63 475 l 149 475 q 149 483 149 479 q 149 493 149 488 q 149 501 149 497 q 149 510 149 506 l 81 510 q 53 521 63 510 q 43 546 43 532 q 53 570 43 560 q 81 581 63 581 l 156 581 q 196 715 167 650 q 271 835 225 781 q 408 942 329 903 q 576 981 488 981 q 667 969 622 981 q 750 939 711 958 l 750 982 l 856 982 l 856 742 l 750 742 l 750 814 q 678 855 717 840 q 601 874 640 869 q 590 875 596 875 q 576 875 583 875 q 541 872 558 875 q 506 865 524 869 l 506 581 l 868 581 q 897 569 888 581 q 906 544 906 558 q 897 520 906 531 q 868 510 888 510 l 868 510 z "},"‹":{"ha":342,"x_min":18,"x_max":319,"o":"m 319 339 l 247 263 l 18 485 l 247 707 l 319 632 l 169 485 l 319 339 l 319 339 z "},"›":{"ha":342,"x_min":22,"x_max":324,"o":"m 324 485 l 94 263 l 22 339 l 172 485 l 22 632 l 94 707 l 324 485 l 324 485 z "},"":{"ha":694,"x_min":0,"x_max":0,"o":""},"":{"ha":694,"x_min":0,"x_max":0,"o":""},"‡":{"ha":694,"x_min":0,"x_max":0,"o":""},"∙":{"ha":428,"x_min":19,"x_max":407,"o":"m 407 503 q 360 405 407 442 q 258 357 314 368 q 235 354 246 356 q 213 353 224 353 q 190 354 201 353 q 165 358 178 356 q 65 406 111 369 q 19 503 19 442 q 65 600 19 564 q 165 647 111 636 q 190 651 178 650 q 213 653 201 653 q 235 651 224 653 q 258 649 246 650 q 360 601 314 638 q 407 503 407 565 l 407 503 z "},"‚":{"ha":694,"x_min":0,"x_max":0,"o":""},"„":{"ha":694,"x_min":0,"x_max":0,"o":""},"‰":{"ha":694,"x_min":0,"x_max":0,"o":""},"Â":{"ha":1194,"x_min":15,"x_max":1167,"o":"m 1167 0 l 642 0 l 642 106 l 738 106 l 660 268 q 610 262 633 264 q 567 260 588 260 q 520 263 542 260 q 479 269 499 265 q 430 284 453 275 q 386 303 407 293 l 290 106 l 361 106 l 361 0 l 50 0 l 50 106 l 172 106 l 293 353 q 267 364 281 358 q 238 374 253 369 q 215 378 226 376 q 192 381 203 381 q 153 372 171 381 q 125 344 136 364 q 123 338 124 342 q 122 329 122 335 q 122 324 122 326 q 124 317 122 321 q 127 306 125 311 q 131 296 129 300 l 42 239 q 24 275 31 256 q 15 315 18 294 q 15 323 15 319 q 15 329 15 326 q 19 365 15 347 q 32 396 24 382 q 96 462 57 440 q 185 485 135 483 q 259 476 221 486 q 339 447 297 467 l 624 1049 l 1099 106 l 1167 106 l 1167 0 l 1167 0 m 611 368 l 514 567 l 432 397 q 466 383 449 389 q 501 372 483 376 q 533 367 517 369 q 567 365 549 365 q 589 366 578 365 q 611 368 600 367 l 611 368 m 808 1064 l 763 996 l 631 1085 l 500 996 l 454 1064 l 631 1183 l 808 1064 l 808 1064 z "},"Ê":{"ha":989,"x_min":13,"x_max":982,"o":"m 982 261 q 981 244 982 253 q 979 225 981 235 q 950 144 972 183 q 890 72 928 104 q 801 20 853 40 q 686 0 750 0 l 14 0 l 14 106 q 35 106 25 106 q 57 106 46 106 q 78 106 68 106 q 100 106 89 106 l 100 872 l 13 872 l 13 978 l 683 978 l 808 767 l 718 713 l 624 872 l 450 872 l 450 628 l 517 628 l 517 707 l 622 707 l 622 444 l 517 444 l 517 522 l 450 522 l 450 106 q 509 106 479 106 q 568 106 539 106 q 627 106 597 106 q 686 106 657 106 q 764 118 731 106 q 822 151 797 131 q 854 188 842 168 q 872 229 867 208 q 875 245 874 238 q 876 261 876 253 q 876 276 876 268 q 874 292 875 285 q 843 360 867 329 q 778 390 819 390 q 767 390 772 390 q 756 388 761 389 q 727 376 740 385 q 714 349 714 367 q 720 333 714 339 q 736 328 726 328 l 736 222 q 643 262 676 222 q 610 351 610 301 q 610 359 610 356 q 611 365 610 363 q 626 414 614 390 q 661 457 639 438 q 711 485 682 475 q 776 496 740 494 q 928 424 875 497 q 982 261 981 351 l 982 261 m 550 1061 l 504 993 l 372 1082 l 242 993 l 196 1061 l 372 1181 l 550 1061 l 550 1061 z "},"Á":{"ha":1194,"x_min":15,"x_max":1167,"o":"m 1167 0 l 642 0 l 642 106 l 738 106 l 660 268 q 610 262 633 264 q 567 260 588 260 q 520 263 542 260 q 479 269 499 265 q 430 284 453 275 q 386 303 407 293 l 290 106 l 361 106 l 361 0 l 50 0 l 50 106 l 172 106 l 293 353 q 267 364 281 358 q 238 374 253 369 q 215 378 226 376 q 192 381 203 381 q 153 372 171 381 q 125 344 136 364 q 123 338 124 342 q 122 329 122 335 q 122 324 122 326 q 124 317 122 321 q 127 306 125 311 q 131 296 129 300 l 42 239 q 24 275 31 256 q 15 315 18 294 q 15 323 15 319 q 15 329 15 326 q 19 365 15 347 q 32 396 24 382 q 96 462 57 440 q 185 485 135 483 q 259 476 221 486 q 339 447 297 467 l 624 1049 l 1099 106 l 1167 106 l 1167 0 l 1167 0 m 611 368 l 514 567 l 432 397 q 466 383 449 389 q 501 372 483 376 q 533 367 517 369 q 567 365 549 365 q 589 366 578 365 q 611 368 600 367 l 611 368 m 883 1199 l 582 1057 l 543 1129 l 751 1254 l 883 1199 l 883 1199 z "},"Ë":{"ha":989,"x_min":13,"x_max":982,"o":"m 982 261 q 981 244 982 253 q 979 225 981 235 q 950 144 972 183 q 890 72 928 104 q 801 20 853 40 q 686 0 750 0 l 14 0 l 14 106 q 35 106 25 106 q 57 106 46 106 q 78 106 68 106 q 100 106 89 106 l 100 872 l 13 872 l 13 978 l 683 978 l 808 767 l 718 713 l 624 872 l 450 872 l 450 628 l 517 628 l 517 707 l 622 707 l 622 444 l 517 444 l 517 522 l 450 522 l 450 106 q 509 106 479 106 q 568 106 539 106 q 627 106 597 106 q 686 106 657 106 q 764 118 731 106 q 822 151 797 131 q 854 188 842 168 q 872 229 867 208 q 875 245 874 238 q 876 261 876 253 q 876 276 876 268 q 874 292 875 285 q 843 360 867 329 q 778 390 819 390 q 767 390 772 390 q 756 388 761 389 q 727 376 740 385 q 714 349 714 367 q 720 333 714 339 q 736 328 726 328 l 736 222 q 643 262 676 222 q 610 351 610 301 q 610 359 610 356 q 611 365 610 363 q 626 414 614 390 q 661 457 639 438 q 711 485 682 475 q 776 496 740 494 q 928 424 875 497 q 982 261 981 351 l 982 261 m 375 1058 q 357 1015 375 1033 q 314 997 339 997 q 271 1015 289 997 q 253 1058 253 1033 q 271 1101 253 1083 q 314 1118 289 1118 q 357 1101 339 1118 q 375 1058 375 1083 l 375 1058 m 519 1058 q 502 1015 519 1033 q 460 997 485 997 q 417 1015 435 997 q 399 1058 399 1033 q 417 1101 399 1083 q 460 1118 435 1118 q 502 1101 485 1118 q 519 1058 519 1083 l 519 1058 z "},"È":{"ha":989,"x_min":13,"x_max":982,"o":"m 982 261 q 981 244 982 253 q 979 225 981 235 q 950 144 972 183 q 890 72 928 104 q 801 20 853 40 q 686 0 750 0 l 14 0 l 14 106 q 35 106 25 106 q 57 106 46 106 q 78 106 68 106 q 100 106 89 106 l 100 872 l 13 872 l 13 978 l 683 978 l 808 767 l 718 713 l 624 872 l 450 872 l 450 628 l 517 628 l 517 707 l 622 707 l 622 444 l 517 444 l 517 522 l 450 522 l 450 106 q 509 106 479 106 q 568 106 539 106 q 627 106 597 106 q 686 106 657 106 q 764 118 731 106 q 822 151 797 131 q 854 188 842 168 q 872 229 867 208 q 875 245 874 238 q 876 261 876 253 q 876 276 876 268 q 874 292 875 285 q 843 360 867 329 q 778 390 819 390 q 767 390 772 390 q 756 388 761 389 q 727 376 740 385 q 714 349 714 367 q 720 333 714 339 q 736 328 726 328 l 736 222 q 643 262 676 222 q 610 351 610 301 q 610 359 610 356 q 611 365 610 363 q 626 414 614 390 q 661 457 639 438 q 711 485 682 475 q 776 496 740 494 q 928 424 875 497 q 982 261 981 351 l 982 261 m 486 1075 l 447 1003 l 146 1144 l 278 1200 l 486 1075 l 486 1075 z "},"Í":{"ha":574,"x_min":3,"x_max":588,"o":"m 546 0 l 3 0 l 3 106 l 99 106 l 99 872 l 3 872 l 3 978 l 546 978 l 546 872 l 449 872 l 449 106 l 546 106 l 546 0 l 546 0 m 588 1136 l 286 994 l 247 1067 l 456 1192 l 588 1136 l 588 1136 z "},"Î":{"ha":574,"x_min":3,"x_max":546,"o":"m 546 0 l 3 0 l 3 106 l 99 106 l 99 872 l 3 872 l 3 978 l 546 978 l 546 872 l 449 872 l 449 106 l 546 106 l 546 0 l 546 0 m 454 1068 l 408 1000 l 276 1089 l 146 1000 l 100 1068 l 276 1188 l 454 1068 l 454 1068 z "},"Ï":{"ha":574,"x_min":3,"x_max":546,"o":"m 546 0 l 3 0 l 3 106 l 99 106 l 99 872 l 3 872 l 3 978 l 546 978 l 546 872 l 449 872 l 449 106 l 546 106 l 546 0 l 546 0 m 267 1064 q 249 1021 267 1039 q 206 1003 231 1003 q 163 1021 181 1003 q 144 1064 144 1039 q 163 1106 144 1089 q 206 1124 181 1124 q 249 1106 231 1124 q 267 1064 267 1089 l 267 1064 m 411 1064 q 394 1021 411 1039 q 351 1003 376 1003 q 308 1021 326 1003 q 290 1064 290 1039 q 308 1106 290 1089 q 351 1124 326 1124 q 394 1106 376 1124 q 411 1064 411 1089 l 411 1064 z "},"Ì":{"ha":574,"x_min":3,"x_max":546,"o":"m 546 0 l 3 0 l 3 106 l 99 106 l 99 872 l 3 872 l 3 978 l 546 978 l 546 872 l 449 872 l 449 106 l 546 106 l 546 0 l 546 0 m 378 1067 l 339 994 l 38 1136 l 169 1192 l 378 1067 l 378 1067 z "},"Ó":{"ha":983,"x_min":0,"x_max":976,"o":"m 976 489 q 833 144 976 288 q 488 0 690 0 q 143 144 286 0 q 0 489 0 288 q 143 835 0 692 q 488 978 286 978 q 833 835 690 978 q 976 489 976 692 l 976 489 m 871 489 q 759 759 871 646 q 488 872 647 872 q 442 869 465 872 q 397 861 419 867 l 397 117 q 442 108 419 111 q 488 106 465 106 q 758 218 646 106 q 871 489 871 331 l 871 489 m 767 1136 l 465 994 l 426 1067 l 635 1192 l 767 1136 l 767 1136 z "},"Ô":{"ha":983,"x_min":0,"x_max":976,"o":"m 976 489 q 833 144 976 288 q 488 0 690 0 q 143 144 286 0 q 0 489 0 288 q 143 835 0 692 q 488 978 286 978 q 833 835 690 978 q 976 489 976 692 l 976 489 m 871 489 q 759 759 871 646 q 488 872 647 872 q 442 869 465 872 q 397 861 419 867 l 397 117 q 442 108 419 111 q 488 106 465 106 q 758 218 646 106 q 871 489 871 331 l 871 489 m 671 1051 l 625 983 l 493 1072 l 363 983 l 317 1051 l 493 1171 l 671 1051 l 671 1051 z "},"":{"ha":694,"x_min":0,"x_max":0,"o":""},"Ò":{"ha":694,"x_min":0,"x_max":0,"o":""},"Ú":{"ha":1038,"x_min":0,"x_max":1014,"o":"m 1014 -15 q 883 28 940 -14 q 803 138 826 71 q 665 29 747 69 q 488 -11 582 -11 q 329 21 403 -11 q 199 108 256 53 q 111 238 143 164 q 79 397 79 313 l 79 875 l 0 875 l 0 981 l 507 981 l 507 875 l 424 875 l 424 100 q 455 95 439 97 q 488 93 471 93 q 703 182 614 93 q 792 397 792 271 l 792 410 l 792 875 l 697 875 l 697 981 l 979 981 l 979 875 l 897 875 l 897 397 l 897 207 q 932 125 897 160 q 1014 90 967 90 l 1014 -15 l 1014 -15 m 825 1136 l 524 994 l 485 1067 l 693 1192 l 825 1136 l 825 1136 z "},"Û":{"ha":1038,"x_min":0,"x_max":1014,"o":"m 1014 -15 q 883 28 940 -14 q 803 138 826 71 q 665 29 747 69 q 488 -11 582 -11 q 329 21 403 -11 q 199 108 256 53 q 111 238 143 164 q 79 397 79 313 l 79 875 l 0 875 l 0 981 l 507 981 l 507 875 l 424 875 l 424 100 q 455 95 439 97 q 488 93 471 93 q 703 182 614 93 q 792 397 792 271 l 792 410 l 792 875 l 697 875 l 697 981 l 979 981 l 979 875 l 897 875 l 897 397 l 897 207 q 932 125 897 160 q 1014 90 967 90 l 1014 -15 l 1014 -15 m 708 1064 l 663 996 l 531 1085 l 400 996 l 354 1064 l 531 1183 l 708 1064 l 708 1064 z "},"Ù":{"ha":1038,"x_min":0,"x_max":1014,"o":"m 1014 -15 q 883 28 940 -14 q 803 138 826 71 q 665 29 747 69 q 488 -11 582 -11 q 329 21 403 -11 q 199 108 256 53 q 111 238 143 164 q 79 397 79 313 l 79 875 l 0 875 l 0 981 l 507 981 l 507 875 l 424 875 l 424 100 q 455 95 439 97 q 488 93 471 93 q 703 182 614 93 q 792 397 792 271 l 792 410 l 792 875 l 697 875 l 697 981 l 979 981 l 979 875 l 897 875 l 897 397 l 897 207 q 932 125 897 160 q 1014 90 967 90 l 1014 -15 l 1014 -15 m 669 1067 l 631 994 l 329 1136 l 461 1192 l 669 1067 l 669 1067 z "},"ı":{"ha":694,"x_min":0,"x_max":0,"o":""},"˜":{"ha":440,"x_min":46,"x_max":400,"o":"m 400 989 l 354 921 l 222 1010 l 92 921 l 46 989 l 222 1108 l 400 989 l 400 989 z "},"ˆ":{"ha":440,"x_min":28,"x_max":429,"o":"m 429 1031 l 361 983 q 333 1008 350 1000 q 296 1017 315 1017 q 274 1013 285 1017 q 251 1003 263 1010 q 216 985 235 992 q 178 976 197 979 q 167 976 172 976 q 158 976 163 976 q 86 993 121 976 q 28 1043 51 1010 l 96 1090 q 125 1065 107 1074 q 161 1057 143 1057 q 184 1060 172 1057 q 206 1071 196 1064 q 250 1091 226 1085 q 297 1097 274 1097 q 370 1080 335 1097 q 429 1031 406 1063 l 429 1031 z "},"ˉ":{"ha":694,"x_min":0,"x_max":0,"o":""},"˘":{"ha":694,"x_min":0,"x_max":0,"o":""},"˙":{"ha":694,"x_min":0,"x_max":0,"o":""},"˚":{"ha":288,"x_min":36,"x_max":268,"o":"m 268 990 q 259 945 268 967 q 233 908 250 924 l 235 908 q 197 884 218 893 q 151 875 176 875 q 70 909 104 875 q 36 990 36 943 q 45 1035 36 1014 q 69 1072 54 1057 q 108 1097 86 1088 q 151 1107 129 1107 q 234 1073 200 1107 q 268 990 268 1039 l 268 990 m 197 990 q 184 1023 197 1010 q 151 1036 171 1036 q 134 1033 142 1036 q 119 1024 126 1031 q 110 1009 114 1018 q 107 990 107 1000 q 120 958 107 972 q 151 944 133 944 q 171 949 163 944 q 185 958 179 953 q 194 973 192 965 q 197 990 197 981 l 197 990 z "},"¸":{"ha":440,"x_min":47,"x_max":321,"o":"m 318 -90 q 319 -94 318 -92 q 319 -100 319 -97 q 321 -106 321 -103 q 321 -111 321 -108 q 321 -119 321 -115 q 319 -125 321 -122 q 310 -154 317 -140 q 292 -179 303 -168 q 244 -211 269 -201 q 192 -221 219 -221 q 188 -221 190 -221 q 183 -221 186 -221 q 180 -219 182 -219 q 175 -219 178 -219 q 114 -205 146 -217 q 47 -175 82 -193 l 86 -104 q 138 -127 114 -118 q 182 -137 163 -136 q 190 -139 186 -139 q 197 -139 194 -139 q 217 -135 208 -139 q 232 -125 225 -132 q 236 -120 235 -124 q 238 -114 238 -117 q 235 -106 238 -110 q 228 -100 233 -103 q 224 -99 226 -99 q 219 -99 222 -99 q 207 -101 214 -99 q 190 -110 200 -104 l 128 -67 l 154 31 l 239 29 l 226 -17 q 285 -38 258 -18 q 318 -89 311 -58 l 318 -90 z "},"ʺ":{"ha":694,"x_min":0,"x_max":0,"o":""},"˛":{"ha":694,"x_min":0,"x_max":0,"o":""},"ˇ":{"ha":694,"x_min":0,"x_max":0,"o":""},"Ł":{"ha":694,"x_min":0,"x_max":0,"o":""},"ł":{"ha":694,"x_min":0,"x_max":0,"o":""},"Š":{"ha":694,"x_min":0,"x_max":0,"o":""},"š":{"ha":694,"x_min":0,"x_max":0,"o":""},"Ž":{"ha":694,"x_min":0,"x_max":0,"o":""},"ž":{"ha":694,"x_min":0,"x_max":0,"o":""},"¦":{"ha":694,"x_min":0,"x_max":0,"o":""},"Ð":{"ha":1094,"x_min":50,"x_max":1044,"o":"m 1044 429 q 1013 233 1044 315 q 917 99 981 151 q 766 24 854 47 q 563 0 678 0 l 85 0 l 85 106 l 150 106 l 150 389 l 50 389 l 50 494 l 150 494 l 150 872 l 85 872 l 85 978 l 492 978 q 513 977 503 978 q 533 976 524 976 q 718 923 628 967 q 879 808 808 879 q 999 638 953 736 q 1044 429 1044 540 l 1044 429 m 939 429 q 902 596 939 518 q 804 733 865 674 q 681 824 750 788 q 540 869 613 860 q 520 872 531 871 q 500 872 510 872 l 500 494 l 647 494 l 647 389 l 500 389 l 500 106 l 563 106 q 730 123 658 106 q 849 179 801 140 q 916 278 893 217 q 939 429 939 340 l 939 429 z "},"ð":{"ha":694,"x_min":0,"x_max":0,"o":""},"Ý":{"ha":694,"x_min":0,"x_max":0,"o":""},"ý":{"ha":694,"x_min":0,"x_max":0,"o":""},"Þ":{"ha":1071,"x_min":49,"x_max":1022,"o":"m 1022 440 q 1022 426 1022 433 q 1021 411 1022 418 q 919 199 1010 294 q 710 104 829 103 q 590 142 642 104 q 539 256 539 181 q 585 354 539 313 q 686 399 632 396 q 691 399 689 399 q 694 399 693 399 q 742 390 719 399 q 788 368 765 382 l 729 279 q 719 286 724 283 q 710 290 714 289 q 701 292 706 292 q 693 293 697 293 q 659 279 675 293 q 643 249 643 265 q 647 237 643 243 q 657 224 650 231 q 678 214 665 218 q 711 208 692 210 q 836 264 781 208 q 910 388 892 319 q 915 413 914 400 q 917 439 917 426 q 893 563 917 510 q 831 650 869 615 q 723 714 785 693 q 596 735 661 735 q 567 735 594 735 q 506 735 539 735 l 506 106 l 632 106 l 632 0 l 49 0 l 49 106 l 156 106 l 156 875 l 51 875 l 51 979 l 629 979 l 629 875 l 506 875 l 506 840 q 567 840 539 840 q 596 840 594 840 q 609 840 603 840 q 622 839 615 840 q 773 808 700 836 q 903 728 846 779 q 988 606 956 678 q 1022 440 1021 535 l 1022 440 z "},"þ":{"ha":694,"x_min":0,"x_max":0,"o":""},"−":{"ha":694,"x_min":0,"x_max":0,"o":""},"×":{"ha":694,"x_min":0,"x_max":0,"o":""},"¹":{"ha":694,"x_min":0,"x_max":0,"o":""},"²":{"ha":694,"x_min":0,"x_max":0,"o":""},"³":{"ha":694,"x_min":0,"x_max":0,"o":""},"½":{"ha":694,"x_min":0,"x_max":0,"o":""},"¼":{"ha":694,"x_min":0,"x_max":0,"o":""},"¾":{"ha":694,"x_min":0,"x_max":0,"o":""},"₣":{"ha":694,"x_min":0,"x_max":0,"o":""},"Ğ":{"ha":694,"x_min":0,"x_max":0,"o":""},"ğ":{"ha":694,"x_min":0,"x_max":0,"o":""},"İ":{"ha":694,"x_min":0,"x_max":0,"o":""},"Ş":{"ha":694,"x_min":0,"x_max":0,"o":""},"ş":{"ha":694,"x_min":0,"x_max":0,"o":""},"Ć":{"ha":694,"x_min":0,"x_max":0,"o":""},"ć":{"ha":694,"x_min":0,"x_max":0,"o":""},"Č":{"ha":694,"x_min":0,"x_max":0,"o":""},"č":{"ha":694,"x_min":0,"x_max":0,"o":""},"đ":{"ha":694,"x_min":0,"x_max":0,"o":""},"→":{"ha":694,"x_min":0,"x_max":0,"o":""},"⌂":{"ha":694,"x_min":0,"x_max":0,"o":""},"–":{"ha":694,"x_min":0,"x_max":0,"o":""},"­":{"ha":694,"x_min":0,"x_max":0,"o":""},"■":{"ha":694,"x_min":0,"x_max":0,"o":""},"•":{"ha":575,"x_min":86,"x_max":500,"o":"m 500 372 q 440 227 500 288 q 293 167 379 167 q 147 227 208 167 q 86 372 86 288 q 147 519 86 458 q 293 579 208 579 q 440 519 379 579 q 500 372 500 458 l 500 372 z "},"¯":{"ha":694,"x_min":0,"x_max":0,"o":""},"°":{"ha":694,"x_min":0,"x_max":0,"o":""},"·":{"ha":694,"x_min":0,"x_max":0,"o":""},"‗":{"ha":694,"x_min":0,"x_max":0,"o":""},"‼":{"ha":694,"x_min":0,"x_max":0,"o":""},"ⁿ":{"ha":694,"x_min":0,"x_max":0,"o":""},"₧":{"ha":694,"x_min":0,"x_max":0,"o":""},"Γ":{"ha":694,"x_min":0,"x_max":0,"o":""},"Θ":{"ha":694,"x_min":0,"x_max":0,"o":""},"Φ":{"ha":694,"x_min":0,"x_max":0,"o":""},"α":{"ha":694,"x_min":0,"x_max":0,"o":""},"δ":{"ha":694,"x_min":0,"x_max":0,"o":""},"ε":{"ha":694,"x_min":0,"x_max":0,"o":""},"σ":{"ha":694,"x_min":0,"x_max":0,"o":""},"τ":{"ha":694,"x_min":0,"x_max":0,"o":""},"φ":{"ha":694,"x_min":0,"x_max":0,"o":""},"←":{"ha":694,"x_min":0,"x_max":0,"o":""},"↑":{"ha":694,"x_min":0,"x_max":0,"o":""},"↓":{"ha":694,"x_min":0,"x_max":0,"o":""},"↔":{"ha":694,"x_min":0,"x_max":0,"o":""},"↕":{"ha":694,"x_min":0,"x_max":0,"o":""},"↨":{"ha":694,"x_min":0,"x_max":0,"o":""},"∟":{"ha":694,"x_min":0,"x_max":0,"o":""},"∩":{"ha":694,"x_min":0,"x_max":0,"o":""},"≡":{"ha":694,"x_min":0,"x_max":0,"o":""},"⌐":{"ha":694,"x_min":0,"x_max":0,"o":""},"⌠":{"ha":694,"x_min":0,"x_max":0,"o":""},"⌡":{"ha":694,"x_min":0,"x_max":0,"o":""},"▬":{"ha":694,"x_min":0,"x_max":0,"o":""},"○":{"ha":694,"x_min":0,"x_max":0,"o":""},"▲":{"ha":694,"x_min":0,"x_max":0,"o":""},"►":{"ha":694,"x_min":0,"x_max":0,"o":""},"▼":{"ha":694,"x_min":0,"x_max":0,"o":""},"◄":{"ha":694,"x_min":0,"x_max":0,"o":""},"◘":{"ha":694,"x_min":0,"x_max":0,"o":""},"◙":{"ha":694,"x_min":0,"x_max":0,"o":""},"Ř":{"ha":694,"x_min":0,"x_max":0,"o":""},"▀":{"ha":694,"x_min":0,"x_max":0,"o":""},"▄":{"ha":694,"x_min":0,"x_max":0,"o":""},"█":{"ha":694,"x_min":0,"x_max":0,"o":""},"▌":{"ha":694,"x_min":0,"x_max":0,"o":""},"▐":{"ha":694,"x_min":0,"x_max":0,"o":""},"░":{"ha":694,"x_min":0,"x_max":0,"o":""},"▒":{"ha":694,"x_min":0,"x_max":0,"o":""},"▓":{"ha":694,"x_min":0,"x_max":0,"o":""},"☺":{"ha":694,"x_min":0,"x_max":0,"o":""},"☻":{"ha":694,"x_min":0,"x_max":0,"o":""},"☼":{"ha":694,"x_min":0,"x_max":0,"o":""},"♀":{"ha":694,"x_min":0,"x_max":0,"o":""},"♂":{"ha":694,"x_min":0,"x_max":0,"o":""},"♠":{"ha":694,"x_min":0,"x_max":0,"o":""},"♣":{"ha":694,"x_min":0,"x_max":0,"o":""},"♥":{"ha":694,"x_min":0,"x_max":0,"o":""},"♦":{"ha":694,"x_min":0,"x_max":0,"o":""},"♪":{"ha":694,"x_min":0,"x_max":0,"o":""},"♫":{"ha":694,"x_min":0,"x_max":0,"o":""},"Ă":{"ha":694,"x_min":0,"x_max":0,"o":""},"ă":{"ha":694,"x_min":0,"x_max":0,"o":""},"Ą":{"ha":694,"x_min":0,"x_max":0,"o":""},"ą":{"ha":694,"x_min":0,"x_max":0,"o":""},"Ď":{"ha":694,"x_min":0,"x_max":0,"o":""},"ď":{"ha":694,"x_min":0,"x_max":0,"o":""},"Đ":{"ha":694,"x_min":0,"x_max":0,"o":""},"Ę":{"ha":694,"x_min":0,"x_max":0,"o":""},"ę":{"ha":694,"x_min":0,"x_max":0,"o":""},"Ě":{"ha":694,"x_min":0,"x_max":0,"o":""},"ě":{"ha":694,"x_min":0,"x_max":0,"o":""},"Ĺ":{"ha":694,"x_min":0,"x_max":0,"o":""},"ĺ":{"ha":694,"x_min":0,"x_max":0,"o":""},"Ľ":{"ha":694,"x_min":0,"x_max":0,"o":""},"ľ":{"ha":694,"x_min":0,"x_max":0,"o":""},"Ń":{"ha":694,"x_min":0,"x_max":0,"o":""},"ń":{"ha":694,"x_min":0,"x_max":0,"o":""},"Ň":{"ha":694,"x_min":0,"x_max":0,"o":""},"ň":{"ha":694,"x_min":0,"x_max":0,"o":""},"Ő":{"ha":694,"x_min":0,"x_max":0,"o":""},"ő":{"ha":694,"x_min":0,"x_max":0,"o":""},"Ŕ":{"ha":694,"x_min":0,"x_max":0,"o":""},"ŕ":{"ha":694,"x_min":0,"x_max":0,"o":""},"ř":{"ha":694,"x_min":0,"x_max":0,"o":""},"Ś":{"ha":694,"x_min":0,"x_max":0,"o":""},"ś":{"ha":694,"x_min":0,"x_max":0,"o":""},"Ţ":{"ha":694,"x_min":0,"x_max":0,"o":""},"ţ":{"ha":694,"x_min":0,"x_max":0,"o":""},"Ť":{"ha":694,"x_min":0,"x_max":0,"o":""},"ť":{"ha":694,"x_min":0,"x_max":0,"o":""},"Ů":{"ha":694,"x_min":0,"x_max":0,"o":""},"ů":{"ha":694,"x_min":0,"x_max":0,"o":""},"ű":{"ha":694,"x_min":0,"x_max":0,"o":""},"Ű":{"ha":694,"x_min":0,"x_max":0,"o":""},"Ź":{"ha":694,"x_min":0,"x_max":0,"o":""},"ź":{"ha":694,"x_min":0,"x_max":0,"o":""},"Ż":{"ha":694,"x_min":0,"x_max":0,"o":""},"ż":{"ha":694,"x_min":0,"x_max":0,"o":""},"Ŀ":{"ha":694,"x_min":0,"x_max":0,"o":""},"ŀ":{"ha":694,"x_min":0,"x_max":0,"o":""},"─":{"ha":694,"x_min":0,"x_max":0,"o":""},"│":{"ha":694,"x_min":0,"x_max":0,"o":""},"┌":{"ha":694,"x_min":0,"x_max":0,"o":""},"┐":{"ha":694,"x_min":0,"x_max":0,"o":""},"└":{"ha":694,"x_min":0,"x_max":0,"o":""},"┘":{"ha":694,"x_min":0,"x_max":0,"o":""},"├":{"ha":694,"x_min":0,"x_max":0,"o":""},"┤":{"ha":694,"x_min":0,"x_max":0,"o":""},"┬":{"ha":694,"x_min":0,"x_max":0,"o":""},"┴":{"ha":694,"x_min":0,"x_max":0,"o":""},"┼":{"ha":694,"x_min":0,"x_max":0,"o":""},"═":{"ha":694,"x_min":0,"x_max":0,"o":""},"║":{"ha":694,"x_min":0,"x_max":0,"o":""},"╒":{"ha":694,"x_min":0,"x_max":0,"o":""},"╓":{"ha":694,"x_min":0,"x_max":0,"o":""},"╔":{"ha":694,"x_min":0,"x_max":0,"o":""},"╕":{"ha":694,"x_min":0,"x_max":0,"o":""},"╖":{"ha":694,"x_min":0,"x_max":0,"o":""},"╗":{"ha":694,"x_min":0,"x_max":0,"o":""},"╘":{"ha":694,"x_min":0,"x_max":0,"o":""},"╙":{"ha":694,"x_min":0,"x_max":0,"o":""},"╚":{"ha":694,"x_min":0,"x_max":0,"o":""},"╛":{"ha":694,"x_min":0,"x_max":0,"o":""},"╜":{"ha":694,"x_min":0,"x_max":0,"o":""},"╝":{"ha":694,"x_min":0,"x_max":0,"o":""},"╞":{"ha":694,"x_min":0,"x_max":0,"o":""},"╟":{"ha":694,"x_min":0,"x_max":0,"o":""},"╠":{"ha":694,"x_min":0,"x_max":0,"o":""},"╡":{"ha":694,"x_min":0,"x_max":0,"o":""},"╢":{"ha":694,"x_min":0,"x_max":0,"o":""},"╣":{"ha":694,"x_min":0,"x_max":0,"o":""},"╤":{"ha":694,"x_min":0,"x_max":0,"o":""},"╥":{"ha":694,"x_min":0,"x_max":0,"o":""},"╦":{"ha":694,"x_min":0,"x_max":0,"o":""},"╧":{"ha":694,"x_min":0,"x_max":0,"o":""},"╨":{"ha":694,"x_min":0,"x_max":0,"o":""},"╩":{"ha":694,"x_min":0,"x_max":0,"o":""},"╪":{"ha":694,"x_min":0,"x_max":0,"o":""},"╫":{"ha":694,"x_min":0,"x_max":0,"o":""},"╬":{"ha":694,"x_min":0,"x_max":0,"o":""}}}
